<?xml version="1.0" encoding="utf-8"?>
<!-- Generator: Adobe Illustrator 25.0.1, SVG Export Plug-In . SVG Version: 6.00 Build 0)  -->
<svg version="1.1" id="Layer_1" xmlns="http://www.w3.org/2000/svg" xmlns:xlink="http://www.w3.org/1999/xlink" x="0px" y="0px"
	 viewBox="0 0 96 96" style="enable-background:new 0 0 96 96;" xml:space="preserve">
<style type="text/css">
	.st0{fill:url(#SVGID_1_);}
	.st1{fill:#10122D;}
</style>
<g>
	<linearGradient id="SVGID_1_" gradientUnits="userSpaceOnUse" x1="-4.7991" y1="10.2815" x2="77.564" y2="60.0825">
		<stop  offset="0" style="stop-color:#3865D0"/>
		<stop  offset="1" style="stop-color:#2EB3CA"/>
	</linearGradient>
	<path class="st0" d="M83.5,1.9c-5.9,0-10.6,4.8-10.6,10.6c0,3.7,1.9,6.9,4.7,8.8c-2.8-1.9-4.7-5.1-4.7-8.8h-21h-17H10H1.9v8.1v24.7
		v8.1H10h18.7v0H1.9v10.9h26.8v29.7h27.3V87c0-1.4,0.3-2.8,1-4l10.3-15.7c0.5-0.9,0.7-1.8,0.9-2.8h15.3V53.5H40.9v8.1
		c0,1.1,0.3,2.1,0.9,2.9h7.8c-0.1,0.2-0.3,0.4-0.5,0.6c-0.9,0.9-2.1,1.4-3.4,1.4c-1.6,0-3-0.8-3.9-2c-0.6-0.8-0.9-1.8-0.9-2.9v-16
		c0-1.7-0.7-3.2-1.8-4.3l0,0c1,1,1.6,2.2,1.7,3.6c0,0.2,0,0.4,0,0.7v7.9H52h23.3h8.1v-8.1V23.2c5.9,0,10.6-4.8,10.6-10.6
		C94.1,6.6,89.4,1.9,83.5,1.9z"/>
	<g>
		<g>
			<path class="st1" d="M83.5,0C77.2,0,72,4.6,71.1,10.6H1.9c-1,0-1.9,0.8-1.9,1.9v41v0v10.9c0,1,0.8,1.9,1.9,1.9h25v6.5
				c0,1,0.8,1.9,1.9,1.9c1,0,1.9-0.8,1.9-1.9V45.6c0-2.4,1.9-4.2,4.2-4.2c1.1,0,2.2,0.4,3,1.2c0.8,0.8,1.2,1.9,1.2,3v16
				c0,0.2,0,0.4,0,0.6c0.1,1.2,0.5,2.4,1.3,3.4l0,0l0,0l0,0c1.3,1.7,3.3,2.8,5.4,2.8c1.8,0,3.5-0.7,4.8-2l0,0h15.1L55.5,81.9
				c0,0.1-0.1,0.1-0.1,0.2c-0.8,1.5-1.2,3.2-1.2,4.9v7.1c0,1,0.8,1.9,1.9,1.9c1,0,1.9-0.8,1.9-1.9V87c0-1.1,0.3-2.1,0.7-3.1
				l10.2-15.6c0-0.1,0.1-0.1,0.1-0.2c0.3-0.6,0.5-1.2,0.7-1.8h13.8c1,0,1.9-0.8,1.9-1.9V53.5v0V24.9C91.4,24,96,18.8,96,12.5
				C96,5.6,90.4,0,83.5,0z M71.1,14.4c0,0.2,0.1,0.4,0.1,0.6c0.6,2.8,2.1,5.3,4.3,7.2c0.6,0.5,1.3,0.9,1.9,1.3
				c1.1,0.6,2.3,1.1,3.6,1.3c0.1,0,0.3,0.1,0.4,0.1c0.1,0,0.1,0,0.2,0c0,0,0,0,0,0v18.8c-4,0.8-7.2,3.9-8,8H56.8
				c4-4.7,6.4-11.4,6.4-18.5c0-7.2-2.4-14-6.6-18.7H71.1z M3.8,14.4h4.1c-0.6,1.9-2.2,3.5-4.1,4.1V14.4z M3.8,47.5
				c1.9,0.6,3.5,2.2,4.1,4.1H3.8V47.5z M26.8,62.6H3.8v-1.7h23.1V62.6z M26.8,57.1H3.8v-1.7h23.1V57.1z M26.8,51.6H11.7
				c-0.8-4-3.9-7.2-8-8V22.3c4-0.8,7.2-3.9,8-8h18.2c-4.1,4.7-6.6,11.5-6.6,18.7c0,5.1,1.2,10.1,3.5,14.3V51.6z M41.1,38.9v-0.3
				c0-1-0.8-1.9-1.9-1.9h0c-0.8,0-1.6,0.6-1.8,1.3c-0.7-0.2-1.4-0.4-2.2-0.4c-0.1,0-0.3,0-0.4,0c-2.5,0-4.8,1.2-6.3,3.1
				c-0.1,0.1-0.1,0.2-0.2,0.2c0,0,0,0.1-0.1,0.1c-0.8-2.5-1.2-5.2-1.2-8c0-7.8,3.2-14.9,8.3-18.7h15.8c5.1,3.8,8.3,10.9,8.3,18.7
				c0,7.6-3.1,14.7-8.1,18.5h-8.6v-5.3c0.2,0.1,0.4,0.1,0.7,0.1c1,0,1.9-0.8,1.9-1.9v-1.2c2.4-0.1,4.3-2,4.3-4.4v-3.5
				c0-2.4-2-4.4-4.4-4.4h-3.4c-0.4,0-0.7-0.3-0.7-0.7v-3.3c0-0.4,0.3-0.7,0.7-0.7h3.4c0.4,0,0.7,0.3,0.7,0.7c0,1,0.8,1.9,1.9,1.9
				c1,0,1.9-0.8,1.9-1.9c0-2.4-1.9-4.3-4.3-4.4v-1.2c0-1-0.8-1.9-1.9-1.9c-1,0-1.9,0.8-1.9,1.9v1.2c-2.4,0.1-4.3,2-4.3,4.4v3.3
				c0,2.4,2,4.4,4.4,4.4h3.4c0.4,0,0.7,0.3,0.7,0.7v3.5c0,0.4-0.3,0.7-0.7,0.7h-1.7h0h-1.7C41.4,39.6,41.1,39.3,41.1,38.9z
				 M81.6,62.6H68.2H43c0,0,0,0,0,0c0,0,0-0.1,0-0.1c-0.1-0.3-0.1-0.6-0.1-0.8v-0.7h38.8V62.6z M81.6,57.1H42.8v-1.7h38.8V57.1z
				 M81.6,51.6h-4.1c0.6-1.9,2.2-3.5,4.1-4.1V51.6z M83.5,21.3C83.5,21.3,83.5,21.3,83.5,21.3c-1.8,0-3.5-0.6-4.9-1.5
				c-2.3-1.6-3.9-4.2-3.9-7.3c0-4.8,3.9-8.8,8.8-8.8c4.8,0,8.8,3.9,8.8,8.8C92.2,17.3,88.3,21.3,83.5,21.3z"/>
			<path class="st1" d="M87.5,10.3h-2.2V8.1c0-1-0.8-1.9-1.9-1.9c-1,0-1.9,0.8-1.9,1.9v2.2h-2.2c-1,0-1.9,0.8-1.9,1.9
				c0,1,0.8,1.9,1.9,1.9h2.2v2.2c0,1,0.8,1.9,1.9,1.9c1,0,1.9-0.8,1.9-1.9V14h2.2c1,0,1.9-0.8,1.9-1.9
				C89.4,11.1,88.6,10.3,87.5,10.3z"/>
			<path class="st1" d="M28.7,86.3c-1,0-1.9,0.8-1.9,1.9v6c0,1,0.8,1.9,1.9,1.9c1,0,1.9-0.8,1.9-1.9v-6
				C30.6,87.1,29.7,86.3,28.7,86.3z"/>
			<path class="st1" d="M29.8,82c0.7-0.5,1-1.5,0.7-2.3c-0.3-0.7-1.1-1.2-1.9-1.2c-0.8,0.1-1.5,0.6-1.7,1.4c-0.2,0.8,0.1,1.6,0.7,2
				C28.2,82.4,29.1,82.4,29.8,82z"/>
		</g>
	</g>
</g>
</svg>
