<?xml version="1.0" encoding="utf-8"?>
<!-- Generator: Adobe Illustrator 25.0.1, SVG Export Plug-In . SVG Version: 6.00 Build 0)  -->
<svg version="1.1" id="Layer_1" xmlns="http://www.w3.org/2000/svg" xmlns:xlink="http://www.w3.org/1999/xlink" x="0px" y="0px"
	 viewBox="0 0 96 96" style="enable-background:new 0 0 96 96;" xml:space="preserve">
<style type="text/css">
	.st0{fill:url(#SVGID_1_);}
	.st1{fill:url(#SVGID_2_);}
	.st2{fill:url(#SVGID_3_);}
	.st3{fill:url(#SVGID_4_);}
	.st4{fill:url(#SVGID_5_);}
	.st5{fill:url(#SVGID_6_);}
</style>
<g>
	<linearGradient id="SVGID_1_" gradientUnits="userSpaceOnUse" x1="7.7008" y1="-11.8637" x2="98.9143" y2="60.1873">
		<stop  offset="0" style="stop-color:#3865D0"/>
		<stop  offset="1" style="stop-color:#2EB3CA"/>
	</linearGradient>
	<path class="st0" d="M59.1,17H36.6c-1.6,0-2.8,1.3-2.8,2.8c0,1.6,1.3,2.8,2.8,2.8h22.5c1.6,0,2.8-1.3,2.8-2.8
		C61.9,18.3,60.6,17,59.1,17z"/>
	<linearGradient id="SVGID_2_" gradientUnits="userSpaceOnUse" x1="2.2248" y1="-4.9313" x2="93.4383" y2="67.1197">
		<stop  offset="0" style="stop-color:#3865D0"/>
		<stop  offset="1" style="stop-color:#2EB3CA"/>
	</linearGradient>
	<path class="st1" d="M59.1,28.3H36.6c-1.6,0-2.8,1.3-2.8,2.8c0,1.6,1.3,2.8,2.8,2.8h22.5c1.6,0,2.8-1.3,2.8-2.8
		C61.9,29.5,60.6,28.3,59.1,28.3z"/>
	<linearGradient id="SVGID_3_" gradientUnits="userSpaceOnUse" x1="-7.5768" y1="7.4771" x2="83.6367" y2="79.5281">
		<stop  offset="0" style="stop-color:#3865D0"/>
		<stop  offset="1" style="stop-color:#2EB3CA"/>
	</linearGradient>
	<path class="st2" d="M59.1,39.5H14c-1.6,0-2.8,1.3-2.8,2.8c0,1.6,1.3,2.8,2.8,2.8h45c1.6,0,2.8-1.3,2.8-2.8
		C61.9,40.8,60.6,39.5,59.1,39.5z"/>
	<linearGradient id="SVGID_4_" gradientUnits="userSpaceOnUse" x1="-15.0129" y1="16.8909" x2="76.2006" y2="88.9419">
		<stop  offset="0" style="stop-color:#3865D0"/>
		<stop  offset="1" style="stop-color:#2EB3CA"/>
	</linearGradient>
	<path class="st3" d="M48.9,50.8H14c-1.6,0-2.8,1.3-2.8,2.8c0,1.6,1.3,2.8,2.8,2.8h34.8c1.6,0,2.8-1.3,2.8-2.8
		C51.7,52,50.4,50.8,48.9,50.8z"/>
	<linearGradient id="SVGID_5_" gradientUnits="userSpaceOnUse" x1="-10.2984" y1="10.9226" x2="80.9151" y2="82.9735">
		<stop  offset="0" style="stop-color:#3865D0"/>
		<stop  offset="1" style="stop-color:#2EB3CA"/>
	</linearGradient>
	<path class="st4" d="M73.3,50.8V8.4c0-4.7-4-8.4-8.6-8.4H25.3c-0.7,0-1.4,0.3-2,0.8L0.8,23.5C0.3,24,0,24.7,0,25.5v62.1
		C0,92.2,3.8,96,8.4,96c5.9,0,7.9,0,7.9,0c8.6,0,25.6,0,57,0C85.8,96,96,85.8,96,73.3C96,60.9,85.8,50.8,73.3,50.8z M22.5,9.6v13.1
		H9.5L22.5,9.6z M8.4,90.4c-1.6,0-2.8-1.3-2.8-2.8V28.3h19.7c1.6,0,2.8-1.3,2.8-2.8V5.6h36.6c1.6,0,3,1.3,3,2.8v43.1
		c-6,1.5-11,5.4-14,10.6H14c-1.6,0-2.8,1.3-2.8,2.8c0,1.6,1.3,2.8,2.8,2.8h37.3c-0.5,1.8-0.7,3.7-0.7,5.6H14c-1.6,0-2.8,1.3-2.8,2.8
		s1.3,2.8,2.8,2.8h37.3c1.1,4.4,3.6,8.4,7.1,11.4H8.4z M73.3,90.4c-9.3,0-17.1-7.8-17.1-17.1c0-9.3,7.7-16.9,17.1-16.9
		S90.4,64,90.4,73.3C90.4,82.6,82.6,90.4,73.3,90.4z"/>
	<linearGradient id="SVGID_6_" gradientUnits="userSpaceOnUse" x1="-8.7571" y1="8.9713" x2="82.4564" y2="81.0223">
		<stop  offset="0" style="stop-color:#3865D0"/>
		<stop  offset="1" style="stop-color:#2EB3CA"/>
	</linearGradient>
	<path class="st5" d="M84,68.5c-1.1-1.1-2.9-1.1-4,0l-9.5,9.3l-3.8-3.7c-1.1-1.1-2.9-1.1-4,0.1c-1.1,1.1-1.1,2.9,0.1,4l5.8,5.6
		c1.1,1.1,2.8,1.1,3.9,0l11.4-11.3C85,71.4,85.1,69.6,84,68.5z"/>
</g>
</svg>
