<?xml version="1.0" encoding="utf-8"?>
<!-- Generator: Adobe Illustrator 25.0.1, SVG Export Plug-In . SVG Version: 6.00 Build 0)  -->
<svg version="1.1" id="Layer_1" xmlns="http://www.w3.org/2000/svg" xmlns:xlink="http://www.w3.org/1999/xlink" x="0px" y="0px"
	 viewBox="0 0 96 96" style="enable-background:new 0 0 96 96;" xml:space="preserve">
<style type="text/css">
	.st0{fill:url(#SVGID_1_);}
	.st1{fill:#10122D;}
</style>
<g>
	<linearGradient id="SVGID_1_" gradientUnits="userSpaceOnUse" x1="0.9968" y1="47.926" x2="94.2046" y2="47.926">
		<stop  offset="0" style="stop-color:#3865D0"/>
		<stop  offset="1" style="stop-color:#2EB3CA"/>
	</linearGradient>
	<path class="st0" d="M94.2,65.4c-1.2-6.4-6.6-7.4-9.6-4.8l-3.1,2.7c3.9-11.1,1.2-24-7.6-32.8L60.7,17.3H61l4.2-12
		c0.5-1.5-1.3-2.7-2.5-1.5l-0.2,0.2c-1.5,1.5-3.8,1.3-5.2-0.1c-2.6-2.6-6.7-2.6-9.3,0c-1.5,1.5-3.9,1.5-5.4,0
		c-1.1-1.1-3,0.1-2.5,1.5l4.2,12h0.3L31.2,30.6c-9.2,9.2-11.8,23-6.9,34.4l-6.3,2.3l0,1.2c0-1.9-1.6-3.5-3.5-3.5h-10
		c-1.9,0-3.5,1.6-3.5,3.5v21.9C1,92.5,2.6,94,4.5,94h10c1.8,0,3.3-1.4,3.5-3.2l0,3.2h45.3c1.4,0,2.8-0.6,3.8-1.5l26.8-26.1
		C94.1,66.2,94.3,65.8,94.2,65.4z"/>
	<path class="st1" d="M52.8,40.1c1.5,0,2.7,1,2.6,2.3c0,0.7,0.4,1.4,1,1.7c1.5,0.7,2.9-0.4,2.9-1.8c0-2.8-1.9-5.1-4.6-5.9v-0.3
		c0-0.7-0.4-1.4-1-1.7c-1.5-0.7-3,0.3-3,1.7v0.3c-2.7,0.8-4.6,3.1-4.6,5.9c0,3.4,3,6.2,6.6,6.2c1.4,0,2.6,1,2.6,2.2
		c0,1.2-1.2,2.2-2.6,2.2c-1.5,0-2.7-1-2.6-2.3c0-0.7-0.4-1.4-1-1.7c-1.5-0.7-2.9,0.4-2.9,1.8c0,2.8,1.9,5.1,4.6,5.9v0.3
		c0,0.7,0.4,1.4,1,1.7c1.5,0.7,3-0.3,3-1.7v-0.3c2.7-0.8,4.6-3.1,4.6-5.9c0-3.4-3-6.2-6.6-6.2c-1.4,0-2.6-1-2.6-2.2
		C50.2,41.1,51.4,40.1,52.8,40.1z"/>
	<path class="st1" d="M95.2,68.2c2.2-5-0.6-9.7-4.9-10.6c-1.7-0.4-3.4-0.1-4.9,0.7c0.9-5.5,0.4-11.3-1.6-16.6c0-0.1-0.1-0.2-0.3-0.3
		c-2.1-1-3.6,0.7-3,2.2c2.1,6.1,2.1,12.7,0.1,18.7L65.7,75.6c-0.9,0.8-1.9,1.5-3,2.1c0.7-2.8-0.3-5.9-3.1-7.8
		c-0.1-0.1-0.2-0.1-0.3-0.2l-20.4-9.8c-1.5-0.7-3.3-0.8-4.9-0.2l-8.3,3.1c-3.7-10.5-1.1-22.2,6.9-30.2l13.2-13.2h14.8l11.2,11.2
		c0.6,0.6,1.5,0.8,2.2,0.4c1.2-0.6,1.4-2.1,0.5-3L63.7,17.1L67.5,6c0.4-1.2,0.2-2.6-0.7-3.5c-1.4-1.4-3.5-1.4-4.8-0.1l0,0
		c-0.8,0.8-2,0.7-2.8,0c-3.3-3.3-8.7-3.3-11.9,0C46.8,2.8,46.3,3,45.8,3c-0.5,0-1-0.2-1.4-0.6c-0.7-0.7-1.5-1.1-2.5-1
		C39.4,1.6,38,3.9,38.8,6l3.9,11.1L29.9,29.9c-4.7,4.7-7.9,10.7-9.1,17.2c-1.1,5.7-0.6,11.6,1.3,17l-3,1.1c-1-1.3-2.5-2.1-4.3-2.1
		H5.4c-3,0-5.4,2.4-5.4,5.4v26.1C0,95.4,0.6,96,1.4,96h62.2c2,0,4-0.8,5.5-2.2l25.7-25C95,68.7,95.1,68.5,95.2,68.2z M49.3,4.9
		c1.8-1.8,4.8-1.8,6.6,0c0.8,0.8,1.7,1.3,2.8,1.6c1.5,0.3,3.1,0.1,4.3-0.7l-3.3,9.5H45.6l-3.3-9.5c1.3,0.8,2.8,1,4.3,0.7
		C47.6,6.2,48.5,5.7,49.3,4.9z M3,90.4V67.7c0-0.9,0.7-1.6,1.6-1.6h9.7c0.9,0,1.6,0.7,1.6,1.6v22.7c0,0.9-0.7,1.6-1.6,1.6H4.6
		C3.7,92,3,91.3,3,90.4z M91.3,66.3l-25,24.3c-0.9,0.9-2.2,1.4-3.5,1.4H19.7c0.2-0.5,0.3-1.1,0.3-1.6V68.5l14.4-5.3
		c1-0.4,2.1-0.3,3.1,0.1l19.9,9.5c0.1,0,0.2,0.1,0.2,0.2c1.3,1.3,1.5,3.1,0.6,4.5c-0.8,1.4-2.5,2-4,1.5L36,73.3c-0.1,0-0.2,0-0.3,0
		c-2.1,1-1.6,3.3-0.1,3.8l17.5,5.6c0.7,0.2,1.5,0.3,2.2,0.3c0.4,0,0.8-0.1,1.2,0.3c1.4,1.5,3.9,1.4,5.4,0.1l24.7-21.9
		c0.1-0.1,0.2-0.1,0.3-0.2c3.1-1,5.6,1.5,4.6,4.7C91.5,66.1,91.4,66.2,91.3,66.3z"/>
	<path class="st1" d="M78,37.1c0.5,0,1-0.2,1.3-0.5c0.3-0.3,0.5-0.8,0.5-1.3c0-0.5-0.2-1-0.5-1.3c-0.3-0.3-0.8-0.5-1.3-0.5
		c-0.5,0-1,0.2-1.3,0.5c-0.3,0.3-0.5,0.8-0.5,1.3c0,0.5,0.2,1,0.5,1.3C77,36.9,77.5,37.1,78,37.1z"/>
</g>
</svg>
