<?xml version="1.0" encoding="utf-8"?>
<!-- Generator: Adobe Illustrator 25.0.1, SVG Export Plug-In . SVG Version: 6.00 Build 0)  -->
<svg version="1.1" id="Layer_1" xmlns="http://www.w3.org/2000/svg" xmlns:xlink="http://www.w3.org/1999/xlink" x="0px" y="0px"
	 viewBox="0 0 96 96" style="enable-background:new 0 0 96 96;" xml:space="preserve">
<style type="text/css">
	.st0{fill:url(#SVGID_1_);}
	.st1{fill:#10122D;}
</style>
<g>
	<linearGradient id="SVGID_1_" gradientUnits="userSpaceOnUse" x1="0.4973" y1="48" x2="95.5027" y2="48">
		<stop  offset="0" style="stop-color:#3865D0"/>
		<stop  offset="1" style="stop-color:#2EB3CA"/>
	</linearGradient>
	<path class="st0" d="M83.6,62.5V27.8v-5H73.2C71.9,10,61.1,0,48,0S24.1,10,22.8,22.8H6.6v5v34.6H0.5v32.8h32.8V81.4h28.1
		C62.6,89.6,69.7,96,78.3,96c9.5,0,17.2-7.7,17.2-17.2C95.5,71.2,90.5,64.7,83.6,62.5z M61.4,76.3H33.3V62.5H11.7V27.8h11.1
		C24.1,40.6,34.9,50.6,48,50.6s23.9-10,25.2-22.8h5.3v33.9c-0.1,0-0.1,0-0.2,0C69.7,61.7,62.6,68,61.4,76.3z"/>
	<g>
		<g>
			<path class="st1" d="M48.3,17c0.3-0.2,0.7-0.3,1.1-0.3c0.6,0,1.1,0.2,1.5,0.6c0.4,0.4,0.6,1.2,0.6,2.4h5.7c0-1.6-0.3-2.9-1-4
				c-0.7-1.1-1.6-2-2.7-2.6c-0.7-0.4-1.6-0.6-2.5-0.8V9h-2.6v3.3c-1.1,0.1-2.1,0.4-2.9,0.8c-1.2,0.5-2.1,1.3-2.7,2.3
				c-0.7,1-1,2.1-1,3.5c0,1.5,0.3,2.7,0.9,3.6c0.6,0.9,1.5,1.7,2.6,2.3c1.1,0.6,2.3,1.2,3.7,1.8c0.6,0.3,1.1,0.5,1.4,0.8
				c0.4,0.3,0.6,0.6,0.8,0.9c0.2,0.3,0.2,0.8,0.2,1.3c0,0.4-0.1,0.7-0.2,1c-0.1,0.3-0.4,0.6-0.6,0.7s-0.7,0.3-1.2,0.3
				c-0.4,0-0.7-0.1-1.1-0.2c-0.3-0.1-0.6-0.3-0.9-0.6c-0.3-0.3-0.5-0.6-0.6-1c-0.2-0.4-0.2-1-0.2-1.6h-5.7c0,1.5,0.2,2.7,0.7,3.7
				c0.5,1,1.2,1.8,2,2.4c0.8,0.6,1.7,1,2.7,1.3c0.6,0.2,1.1,0.2,1.7,0.3v3.2h2.6v-3.2c1-0.1,1.9-0.3,2.7-0.7
				c1.2-0.5,2.1-1.3,2.7-2.2c0.7-1,1-2.2,1-3.5c0-1.5-0.3-2.6-0.9-3.6c-0.6-0.9-1.5-1.7-2.6-2.3c-1.1-0.6-2.3-1.3-3.7-1.9
				c-0.6-0.3-1.1-0.6-1.5-0.8c-0.4-0.3-0.6-0.6-0.8-0.9c-0.2-0.3-0.2-0.7-0.2-1.1c0-0.4,0.1-0.7,0.2-1.1C47.8,17.5,48,17.2,48.3,17z
				"/>
			<polygon class="st1" points="14.5,80.8 10.6,76.9 7.5,80 11.4,83.9 11.3,83.9 14.5,87 27.6,73.9 24.5,70.8 			"/>
			<polygon class="st1" points="79.4,78.9 79.4,70.1 75.2,70.1 75.2,83 75.6,83 79.4,83 88.5,83 88.5,78.9 			"/>
		</g>
	</g>
</g>
</svg>
