<?xml version="1.0" encoding="utf-8"?>
<!-- Generator: Adobe Illustrator 25.0.1, SVG Export Plug-In . SVG Version: 6.00 Build 0)  -->
<svg version="1.1" id="Layer_1" xmlns="http://www.w3.org/2000/svg" xmlns:xlink="http://www.w3.org/1999/xlink" x="0px" y="0px"
	 viewBox="0 0 96 96" style="enable-background:new 0 0 96 96;" xml:space="preserve">
<style type="text/css">
	.st0{fill:url(#SVGID_1_);}
	.st1{fill:url(#SVGID_2_);}
	.st2{fill:url(#SVGID_3_);}
	.st3{fill:#10122D;}
</style>
<g>
	<g>
		<linearGradient id="SVGID_1_" gradientUnits="userSpaceOnUse" x1="2.4792" y1="48.9088" x2="94.5104" y2="48.9088">
			<stop  offset="0" style="stop-color:#3865D0"/>
			<stop  offset="1" style="stop-color:#2EB3CA"/>
		</linearGradient>
		<path class="st0" d="M88.6,4.9v3H77.4l-7.7-4H46.7c-0.8,0-1.5,0.6-1.5,1.5c0,2.5,2,4.5,4.5,4.5h-11h-1.1c-1.6,0-3.1,1.2-3.2,2.8
			c-0.1,1.7,1.3,3.1,3,3.1h-1.7h-1.2c-1.6,0-3.1,1.2-3.2,2.8c-0.1,1.7,1.3,3.1,3,3.1h3.8c-1.6,0-3,1.3-3,3c0,0.8,0.3,1.5,0.8,2
			l0.3,0.2c-1.8,0.5-3.1,2.2-3.1,4.1v0.3l3.3,5.3h-9.7l-7.6,4.9H8.4v-3H2.5v27.7h5.9v-3h9.2l6.1,3.2c-0.1,0.9-0.2,1.9-0.2,2.8
			c0,0.1,0,0.1,0,0.2c0,0.1,0,0.1,0,0.2c0,0.2,0,0.4,0,0.6c0.5,13.1,11.3,23.5,24.5,23.5c13.5,0,24.5-11,24.5-24.5
			c0-7.2-3.1-13.6-8-18.1c-0.4-0.9-1.2-1.5-2.1-1.7c-0.6-0.4-1.2-0.8-1.8-1.2c0.4-0.5,0.7-1.2,0.6-1.9c-0.1-1.6-1.5-2.8-3.2-2.8h-2
			l5.6-8.9h9.7l7.8-4.9h9.3v3h5.9V4.9H88.6z M44.4,27.7c-1.5,0.9-2.1,2-2.1,2L40.7,28c-0.1-0.1-0.3-0.2-0.4-0.3H44.4z M52.5,27.7
			h3.4v0.8l-1.3,1.3C54.6,29.8,54,28.6,52.5,27.7z"/>
		<linearGradient id="SVGID_2_" gradientUnits="userSpaceOnUse" x1="3.9635" y1="16.8641" x2="28.2083" y2="16.8641">
			<stop  offset="0" style="stop-color:#3865D0"/>
			<stop  offset="1" style="stop-color:#2EB3CA"/>
		</linearGradient>
		<polygon class="st1" points="18.8,20.8 14.4,20.8 14.4,7.9 28.2,7.9 28.2,2 8.4,2 8.4,20.8 4,20.8 11.4,31.7 		"/>
		<linearGradient id="SVGID_3_" gradientUnits="userSpaceOnUse" x1="70.7604" y1="79.1254" x2="92.0363" y2="79.1254">
			<stop  offset="0" style="stop-color:#3865D0"/>
			<stop  offset="1" style="stop-color:#2EB3CA"/>
		</linearGradient>
		<polygon class="st2" points="77.2,75.2 81.6,75.2 81.6,88.1 70.8,88.1 70.8,94 87.6,94 87.6,75.2 92,75.2 84.6,64.2 		"/>
	</g>
	<g>
		<path class="st3" d="M86.6,3v4h-9.4L68.9,2H46.1c-1.7,0-3.1,1.4-3.1,3c0,1.1,0.3,2,0.8,2.9h-6.5c-2.2,0-4.3,1.5-4.7,3.7
			c-0.1,0.8,0,1.6,0.3,2.4c-1.9,0.5-3.3,2.2-3.3,4.3c0,2.1,1.4,3.8,3.3,4.3c-0.2,0.5-0.3,1.1-0.3,1.7c0,0.5,0.1,1.1,0.3,1.6
			c-1.1,1-1.8,2.5-1.8,4.1v1.2l2.6,4.5h-7.7l-7.8,4.9H9.4v-3H0.5v30.7h8.9v-4h7.2l5,3c0,0.5-0.1,1-0.1,1.5
			c0,14.2,11.6,25.8,25.8,25.8s25.8-11.6,25.8-25.8c0-7.1-3-13.9-8.1-18.8c-0.6-1.1-1.6-2-2.9-2.3c0.3-0.7,0.4-1.6,0.3-2.4
			c-0.4-2.2-2.5-3.8-4.8-3.8h0.9l3.7-5.9h8.2l8.2-4.9h7.8v3h8.9V3H86.6z M6.4,65.3h-3V40.6h3V65.3z M65.7,55.2
			c3.2,4,5.1,8.9,5.1,14.1c0,12.3-10,22.3-22.3,22.3c-12.3,0-22.3-10-22.3-22.3h24.8c1.5,0,2.8,1,3.1,2.4c0.3,1.9-1.1,3.5-2.9,3.5
			H45c-1.6,0-3-1.3-3-3h-3c0,3.3,2.7,5.9,5.9,5.9H47v3h3v-3h1.2c3.1,0,5.9-2.3,6.2-5.4c0.1-1.3-0.2-2.5-0.8-3.6
			c2.2-0.3,3.8-2.1,3.8-4.4c0-0.6-0.1-1.1-0.3-1.7c1.9-0.5,3.3-2.2,3.3-4.3c0-0.6-0.1-1.1-0.3-1.7C64.2,56.9,65.1,56.2,65.7,55.2z
			 M58.4,44.5c0.8,0,1.5,0.7,1.5,1.5c0,0.8-0.7,1.5-1.5,1.5H36.1v4h25.2c0.8,0,1.5,0.7,1.5,1.5c0,0.8-0.7,1.5-1.5,1.5H36.1v3h22.3
			c0.8,0,1.5,0.7,1.5,1.5c0,0.8-0.7,1.5-1.5,1.5H36.1v3h19.3c0.8,0,1.5,0.7,1.5,1.5c0,0.8-0.7,1.5-1.5,1.5H27.3l-8.2-4.9h-8.7V43.5
			h10.4l8.2-4.9h7l1.9,3h-1.8v3H58.4z M54.9,41.6H41.3l-7-11.2c0.1-1.5,1.3-2.6,2.8-2.6c0.7,0,1.5,0.3,2,0.8l3.3,3.2l1-1.8
			c0-0.1,1.2-2.2,4.8-2.2c3.5,0,4.7,2.1,4.8,2.2l1,1.9l3.3-3.3c0.5-0.5,1.2-0.8,2-0.8c1.5,0,2.7,1.2,2.8,2.6L54.9,41.6z M86.6,27.7
			h-8.7l-8.2,4.9h-4.6l0.7-1.1v-0.2c0-2.7-1.7-5.1-4.3-5.8c-2.4-0.7-4.8-0.1-6.5,1.4l-0.6,0.6c-1.2-1-3.3-2.2-6.7-2.2
			c-3.4,0-5.5,1.2-6.7,2.2l-0.6-0.6c-1.2-1.1-2.8-1.7-4.5-1.7c-0.5,0-0.9,0.1-1.3,0.1c0,0,0-0.1,0-0.1c0-0.8,0.7-1.5,1.6-1.5h24.7
			v-4H35.6c-0.8,0-1.5-0.7-1.5-1.5c0-0.8,0.7-1.5,1.5-1.5h25.2v-3H38.6c-0.8,0-1.5-0.7-1.5-1.5c0-0.8,0.7-1.5,1.5-1.5h22.3v-3H50.5
			c-1.6,0-3-1.3-3-3H68l8.2,4.9h10.4V27.7z M92.5,30.7h-3V5.9h3V30.7z"/>
		<rect x="25.2" class="st3" width="3" height="3"/>
		<rect x="25.2" y="6.9" class="st3" width="3" height="3"/>
		<polygon class="st3" points="22.2,18.8 16.3,18.8 16.3,9.9 22.3,9.9 22.3,6.9 13.4,6.9 13.4,21.8 16.4,21.8 11.9,28.5 7.3,21.8 
			10.4,21.8 10.4,3 22.3,3 22.3,0 7.4,0 7.4,18.8 1.6,18.8 11.9,34 		"/>
		<rect x="71.8" y="92" class="st3" width="3" height="3"/>
		<rect x="71.8" y="86.1" class="st3" width="3" height="3"/>
		<polygon class="st3" points="74.8,77.2 80.7,77.2 80.7,86.1 77.7,86.1 77.7,89.1 83.6,89.1 83.6,74.2 80.6,74.2 85.1,67.5 
			89.6,74.2 86.6,74.2 86.6,93 77.7,93 77.7,96 89.6,96 89.6,77.2 95.4,77.2 85.1,62 		"/>
	</g>
</g>
</svg>
