<?xml version="1.0" encoding="utf-8"?>
<!-- Generator: Adobe Illustrator 25.0.1, SVG Export Plug-In . SVG Version: 6.00 Build 0)  -->
<svg version="1.1" id="Layer_1" xmlns="http://www.w3.org/2000/svg" xmlns:xlink="http://www.w3.org/1999/xlink" x="0px" y="0px"
	 viewBox="0 0 96 96" style="enable-background:new 0 0 96 96;" xml:space="preserve">
<style type="text/css">
	.st0{fill:url(#SVGID_1_);}
	.st1{fill:url(#SVGID_2_);}
	.st2{fill:url(#SVGID_3_);}
	.st3{fill:url(#SVGID_4_);}
	.st4{fill:#10122D;}
</style>
<g>
	<g>
		<linearGradient id="SVGID_1_" gradientUnits="userSpaceOnUse" x1="-3.2976" y1="31.4711" x2="83.4471" y2="80.1094">
			<stop  offset="0" style="stop-color:#3865D0"/>
			<stop  offset="1" style="stop-color:#2EB3CA"/>
		</linearGradient>
		<path class="st0" d="M92.7,66.2l-3.3-3.3c-1.7-1.7-4.5-1.7-6.2,0L83,63l0,0l-8.8-8.8l1.6-1.6c1.8-1.8,1.8-4.8,0-6.6
			c-1.8-1.8-4.8-1.8-6.6,0l1.7-1.7c1.8-1.8,1.8-4.8,0-6.6c-1.8-1.8-4.8-1.8-6.6,0l1.7-1.7c1.8-1.8,1.8-4.8,0-6.6
			c-1.8-1.8-4.8-1.8-6.6,0l1.7-1.7c1.8-1.8,1.8-4.8,0-6.6c-1.1-1.1-2.6-1.5-4-1.3c0,0,0,0,0,0l-12.8-2.4c-2.5-0.5-4.9-0.5-4.7,2.1
			c-1.8-1.8-4.8-1.8-6.6,0c-1.8,1.8-1.8,4.8,0,6.6l1.7,1.7l6.9,6.8c0.2,0.2,0.5,0.4,0.7,0.6c-0.2-0.2-0.5-0.4-0.7-0.6c0,0,0,0,0,0
			l-6.9-6.8c-1.8-1.8-4.8-1.8-6.6,0c-1.8,1.8-1.8,4.8,0,6.6l1.7,1.6c-1.8-1.8-4.8-1.8-6.6,0c-1.8,1.8-1.8,4.8,0,6.6l3.3,3.3l1.9,1.9
			c0.2,0.2,0.4,0.3,0.6,0.5c-0.2-0.1-0.4-0.3-0.6-0.5c0,0,0,0,0,0L26.4,46c-1.8-1.8-4.8-1.8-6.6,0c-1.8,1.8-1.8,4.8,0,6.6l1.6,1.6
			l0.2,0.2c0.5,0.5,1,0.8,1.5,1c-0.6-0.2-1.1-0.6-1.5-1l-0.2-0.2L12.7,63l-0.1-0.1c-1.7-1.7-4.5-1.7-6.2,0L3,66.2
			c-1.7,1.7-1.7,4.5,0,6.2l20.2,20.2c0.3,0.3,0.7,0.6,1.1,0.8h4c0.4-0.2,0.8-0.5,1.1-0.8l3.3-3.3c1.7-1.7,1.7-4.5,0-6.2L32.7,83l0,0
			l8.4-8.4c2.4-2.5,7.9-0.3,12.2-1.2c0,0,0,0,0,0v0l9.6,9.6l12-12l-12,12l-0.1,0.1c-1.7,1.7-1.7,4.5,0,6.2l3.3,3.3
			c0.3,0.3,0.7,0.6,1.1,0.8h4c0.4-0.2,0.8-0.5,1.1-0.8l20.2-20.2C94.4,70.7,94.4,67.9,92.7,66.2z M34.9,41.3L34.9,41.3l-2.6-2.6
			L34.9,41.3c0.2,0.2,0.4,0.3,0.6,0.5C35.3,41.6,35.1,41.5,34.9,41.3z M35.7,41.9c0.4,0.3,0.9,0.4,1.4,0.6
			C36.6,42.4,36.1,42.2,35.7,41.9z M48,28.1l-0.2-0.2l0,0L48,28.1C48,28.1,48,28.1,48,28.1z M54.4,21.2l-3.3,3.3L54.4,21.2
			c0.2-0.2,0.3-0.3,0.5-0.4C54.8,21,54.6,21.1,54.4,21.2z"/>
		<linearGradient id="SVGID_2_" gradientUnits="userSpaceOnUse" x1="19.7557" y1="-9.6437" x2="106.5004" y2="38.9946">
			<stop  offset="0" style="stop-color:#3865D0"/>
			<stop  offset="1" style="stop-color:#2EB3CA"/>
		</linearGradient>
		<path class="st1" d="M47.8,12.2c1,0,1.9-0.8,1.9-1.9V1.9c0-1-0.8-1.9-1.9-1.9s-1.9,0.8-1.9,1.9v8.4C45.9,11.4,46.8,12.2,47.8,12.2
			z"/>
		<linearGradient id="SVGID_3_" gradientUnits="userSpaceOnUse" x1="13.3663" y1="1.7515" x2="100.111" y2="50.3898">
			<stop  offset="0" style="stop-color:#3865D0"/>
			<stop  offset="1" style="stop-color:#2EB3CA"/>
		</linearGradient>
		<path class="st2" d="M22.8,10.6c0.4,0.4,0.9,0.6,1.3,0.6c0.5,0,1-0.2,1.3-0.6c0.7-0.7,0.7-1.9,0-2.7l-6.9-6.9
			c-0.7-0.7-1.9-0.7-2.7,0c-0.7,0.7-0.7,1.9,0,2.7L22.8,10.6z"/>
		<linearGradient id="SVGID_4_" gradientUnits="userSpaceOnUse" x1="26.3685" y1="-21.4374" x2="113.1132" y2="27.2009">
			<stop  offset="0" style="stop-color:#3865D0"/>
			<stop  offset="1" style="stop-color:#2EB3CA"/>
		</linearGradient>
		<path class="st3" d="M71.6,11.2c0.5,0,1-0.2,1.3-0.6l6.9-6.9c0.7-0.7,0.7-1.9,0-2.7c-0.7-0.7-1.9-0.7-2.7,0l-6.9,6.9
			c-0.7,0.7-0.7,1.9,0,2.7C70.6,11,71.1,11.2,71.6,11.2z"/>
	</g>
	<path d="M11.8,81.2c-0.7,0.7-0.7,1.9,0,2.7l0,0c0.4,0.4,0.8,0.5,1.3,0.5c0.5,0,1-0.2,1.3-0.6c0.7-0.7,0.7-1.9,0-2.7
		C13.7,80.5,12.5,80.5,11.8,81.2z"/>
	<path d="M64.2,66.1c0.3,0,0.6-0.1,0.9-0.2c0.9-0.5,1.3-1.6,0.8-2.5c-0.5-0.9-1.6-1.3-2.5-0.8l0,0c-0.9,0.5-1.3,1.6-0.8,2.5
		C62.9,65.7,63.5,66.1,64.2,66.1z"/>
	<path class="st4" d="M94,64.9l-3.3-3.3c-1.2-1.2-2.8-1.8-4.5-1.8c-1.1,0-2.1,0.3-3,0.8l-6.3-6.3l0.3-0.3c2.6-2.6,2.5-6.7,0-9.3
		c-0.9-0.9-2-1.5-3.3-1.8c0.2-0.6,0.3-1.2,0.3-1.8c0-1.8-0.7-3.4-1.9-4.6c-0.9-0.9-2-1.5-3.3-1.8c0.2-0.6,0.3-1.2,0.3-1.8
		c0-1.8-0.7-3.4-1.9-4.6c-0.9-0.9-2.1-1.5-3.3-1.8c0.6-2.2,0.1-4.7-1.7-6.5c-1.5-1.4-3.4-2.1-5.3-1.9l-12.5-2.4
		c-1.9-0.4-4.3-0.6-5.8,0.8c-0.1,0.1-0.2,0.2-0.3,0.3c-2.3-0.8-5-0.3-6.9,1.5c-1.2,1.2-1.9,2.9-1.9,4.6c0,0.6,0.1,1.2,0.3,1.8
		c-1.2,0.3-2.4,0.9-3.3,1.8c-1.2,1.2-1.9,2.9-1.9,4.6c0,0.6,0.1,1.3,0.3,1.8c-1.2,0.3-2.4,0.9-3.3,1.8c-1.2,1.2-1.9,2.9-1.9,4.6
		c0,1.3,0.4,2.6,1.1,3.7c-0.9,0.3-1.8,0.8-2.5,1.6c-2.6,2.5-2.6,6.7,0,9.3l0.3,0.3l-6.3,6.3c-2.3-1.1-5.2-0.7-7.1,1.2L2,65
		c-1.2,1.2-1.8,2.8-1.8,4.5c0,1.7,0.7,3.3,1.8,4.5l4.2,4.2c0.7,0.7,1.9,0.7,2.7,0c0.7-0.7,0.7-1.9,0-2.7l-4.2-4.2
		c-0.5-0.5-0.7-1.1-0.7-1.8c0-0.7,0.3-1.3,0.7-1.8L8,64.4c0.8-0.8,2.1-1,3.1-0.4c0.1,0.1,0.1,0.2,0.2,0.3c0.2,0.2,0.3,0.3,0.5,0.4
		L31,83.8c0.1,0.2,0.2,0.4,0.4,0.5c0.2,0.2,0.3,0.3,0.5,0.4c0.4,0.5,0.6,1,0.6,1.7c0,0.7-0.3,1.3-0.7,1.8l-3.3,3.3c-1,1-2.6,1-3.6,0
		l-4.2-4.2c-0.7-0.7-1.9-0.7-2.7,0c-0.7,0.7-0.7,1.9,0,2.7l4.2,4.2c1.2,1.2,2.8,1.8,4.5,1.8c1.6,0,3.2-0.6,4.5-1.8l3.3-3.3
		c1.2-1.2,1.8-2.8,1.8-4.5c0-1.2-0.3-2.4-1-3.3l7.1-7.1c0,0,0,0,0,0c0.8-0.8,3.1-0.7,5.2-0.5c1.6,0.1,3.3,0.2,5,0l7.7,7.7
		c-0.5,0.9-0.8,1.9-0.8,3c0,1.7,0.7,3.3,1.8,4.5l3.3,3.3c1.2,1.2,2.8,1.8,4.5,1.8c1.7,0,3.3-0.7,4.5-1.8L94,73.8
		c1.2-1.2,1.8-2.8,1.8-4.5C95.8,67.6,95.2,66.1,94,64.9z M43.9,19.4l8.2,1.6l-4.9,4.9c-0.8-0.4-1.8-1-2.9-2.1
		c-1.6-1.5-2.7-3.2-2.8-4.3l0,0c0-0.1,0-0.1,0-0.2C41.7,19.2,42.3,19.1,43.9,19.4z M34.3,20.9c1-1,2.4-1.1,3.5-0.3
		c0.6,2.6,2.8,4.9,3.8,5.8c0.7,0.7,3.1,2.8,5.4,3.4c0.3,0.5,0.5,1,0.5,1.6c0,0.7-0.3,1.4-0.8,2c-0.5,0.5-1.2,0.8-2,0.8
		c-0.7,0-1.4-0.3-2-0.8l0,0l-8.5-8.5c-0.5-0.5-0.8-1.2-0.8-2C33.5,22.1,33.8,21.5,34.3,20.9z M29.4,29.2c0.5-0.5,1.2-0.8,2-0.8
		c0.7,0,1.4,0.3,2,0.8l6.9,6.8c1.1,1.1,1.1,2.8,0,3.9c-0.5,0.5-1.2,0.8-2,0.8c-0.7,0-1.4-0.3-2-0.8L31,34.7c0,0,0,0,0,0l-1.6-1.6
		c-0.5-0.5-0.8-1.2-0.8-2C28.6,30.4,28.8,29.7,29.4,29.2z M24.4,37.4c0.5-0.5,1.2-0.8,2-0.8c0.7,0,1.4,0.3,1.9,0.8l5.2,5.2
		c0.5,0.5,0.8,1.2,0.8,2c0,0.7-0.3,1.4-0.8,2c-0.5,0.5-1.2,0.8-2,0.8c-0.7,0-1.4-0.3-2-0.8l-1.9-1.9l0,0l-3.3-3.3
		c-0.5-0.5-0.8-1.2-0.8-2C23.6,38.6,23.9,37.9,24.4,37.4z M21.1,47.3c0.5-0.5,1.2-0.8,2-0.8c0.7,0,1.4,0.3,2,0.8l1.9,1.9
		c0.5,0.5,0.8,1.2,0.8,2s-0.3,1.4-0.8,2c-0.5,0.5-1.2,0.8-2,0.8c-0.7,0-1.4-0.3-2-0.8l-0.2-0.2c0,0,0,0,0,0c0,0,0,0,0,0l-1.6-1.6
		C20.1,50.1,20.1,48.4,21.1,47.3z M59.6,68.8c-0.7-0.7-1.9-0.7-2.7,0l-1.7,1.7c-1.6,1.6-4.5,1.4-7.3,1.2c-3-0.2-6.2-0.4-8.2,1.7
		l-7,6.9L15.4,62.9l6.2-6.1c1,0.6,2.2,1,3.4,1c1.8,0,3.4-0.7,4.6-1.9c1.2-1.2,1.9-2.9,1.9-4.6c0,0,0,0,0,0c0,0,0,0,0,0
		c1.8,0,3.4-0.7,4.6-1.9c1.2-1.2,1.9-2.9,1.9-4.6c0,0,0,0,0,0c0,0,0,0,0,0c1.8,0,3.4-0.7,4.6-1.9c1.3-1.3,1.9-3,1.9-4.7
		c0,0,0,0,0.1,0c1.8,0,3.4-0.7,4.6-1.9c1.2-1.2,1.9-2.9,1.9-4.6c0-1.2-0.3-2.4-1-3.4l5.4-5.4c0.4-0.4,0.9-0.7,1.4-0.8
		c0.1,0,0.1,0,0.2,0c0.8-0.1,1.7,0.1,2.3,0.8c1.1,1.1,1.1,2.8,0,3.9l-1.6,1.6c0,0,0,0,0,0L56.2,30c-0.7,0.7-0.7,1.9,0,2.7
		c0.7,0.7,1.9,0.7,2.7,0l1.6-1.6l0,0l0.2-0.2c1.1-1.1,2.8-1.1,3.9,0c0.5,0.5,0.8,1.2,0.8,2c0,0.7-0.3,1.4-0.8,2L63,36.4l-1.9,1.9
		c-0.7,0.7-0.7,1.9,0,2.7c0.7,0.7,1.9,0.7,2.7,0l1.9-1.9c0.5-0.5,1.2-0.8,2-0.8c0.7,0,1.4,0.3,2,0.8c0.5,0.5,0.8,1.2,0.8,2
		c0,0.7-0.3,1.4-0.8,2l-3.3,3.3c-0.7,0.7-0.7,1.9,0,2.7c0.4,0.4,0.9,0.6,1.3,0.6c0.5,0,1-0.2,1.3-0.6l1.6-1.6c0,0,0,0,0,0
		c0.5-0.5,1.2-0.8,2-0.8c0.7,0,1.4,0.3,2,0.8c1.1,1.1,1.1,2.8,0,3.9l-1.6,1.6l0,0l0,0l-2.6,2.6c-0.7,0.7-0.7,1.9,0,2.7
		c0.4,0.4,0.9,0.6,1.3,0.6c0.5,0,1-0.2,1.3-0.6l1.3-1.3l6.1,6.1L62.9,80.3l-6.2-6.2c0.4-0.3,0.9-0.6,1.2-1l1.7-1.7
		C60.4,70.7,60.4,69.5,59.6,68.8z M91.3,71.1L71.1,91.3c-0.5,0.5-1.1,0.7-1.8,0.7c-0.7,0-1.3-0.3-1.8-0.7L64.2,88
		c-0.5-0.5-0.7-1.1-0.7-1.8c0-0.7,0.3-1.3,0.7-1.8l20.2-20.2c0.5-0.5,1.1-0.7,1.8-0.7c0.7,0,1.3,0.3,1.8,0.7l3.3,3.3
		c0.5,0.5,0.7,1.1,0.7,1.8C92.1,70,91.8,70.6,91.3,71.1z"/>
</g>
</svg>
