<?xml version="1.0" encoding="utf-8"?>
<!-- Generator: Adobe Illustrator 25.0.1, SVG Export Plug-In . SVG Version: 6.00 Build 0)  -->
<svg version="1.1" id="Layer_1" xmlns="http://www.w3.org/2000/svg" xmlns:xlink="http://www.w3.org/1999/xlink" x="0px" y="0px"
	 viewBox="0 0 70 70" style="enable-background:new 0 0 70 70;" xml:space="preserve">
<style type="text/css">
	.st0{fill:url(#SVGID_1_);}
	.st1{clip-path:url(#SVGID_3_);}
	.st2{fill:#FFFFFF;}
</style>
<g>
	<linearGradient id="SVGID_1_" gradientUnits="userSpaceOnUse" x1="0" y1="35" x2="70" y2="35">
		<stop  offset="0" style="stop-color:#3865D0"/>
		<stop  offset="1" style="stop-color:#2EB3CA"/>
	</linearGradient>
	<circle class="st0" cx="35" cy="35" r="35"/>
	<g>
		<defs>
			<rect id="SVGID_2_" x="21.7" y="11.7" width="26.7" height="47.5"/>
		</defs>
		<clipPath id="SVGID_3_">
			<use xlink:href="#SVGID_2_"  style="overflow:visible;"/>
		</clipPath>
		<g class="st1">
			<path class="st2" d="M41,33.3l-10-2.9c-1.2-0.3-2-1.4-2-2.6c0-1.5,1.2-2.7,2.7-2.7h6.1c1.1,0,2.2,0.3,3.2,1
				c0.6,0.4,1.3,0.3,1.8-0.2l3.2-3.2c0.7-0.6,0.6-1.7-0.2-2.3c-2.3-1.8-5.1-2.8-8-2.8v-4.5c0-0.8-0.7-1.5-1.5-1.5h-3
				c-0.8,0-1.5,0.7-1.5,1.5v4.5h-0.2c-5.9,0-10.6,5.1-10.1,11.1c0.4,4.3,3.6,7.8,7.8,9l9.5,2.8c1.2,0.3,2,1.4,2,2.6
				c0,1.5-1.2,2.7-2.7,2.7h-6.1c-1.1,0-2.2-0.3-3.2-1c-0.6-0.4-1.3-0.3-1.8,0.2l-3.2,3.2c-0.7,0.6-0.6,1.7,0.2,2.3
				c2.3,1.8,5.1,2.8,8,2.8v4.5c0,0.8,0.7,1.5,1.5,1.5h3c0.8,0,1.5-0.7,1.5-1.5v-4.5c4.3-0.1,8.4-2.7,9.8-6.7
				C49.7,40.8,46.4,34.9,41,33.3z"/>
		</g>
	</g>
</g>
</svg>
