<?xml version="1.0" encoding="utf-8"?>
<!-- Generator: Adobe Illustrator 25.0.1, SVG Export Plug-In . SVG Version: 6.00 Build 0)  -->
<svg version="1.1" id="Layer_1" xmlns="http://www.w3.org/2000/svg" xmlns:xlink="http://www.w3.org/1999/xlink" x="0px" y="0px"
	 viewBox="0 0 70 70" style="enable-background:new 0 0 70 70;" xml:space="preserve">
<style type="text/css">
	.st0{fill:url(#SVGID_1_);}
	.st1{fill:#FFFFFF;}
</style>
<g>
	<linearGradient id="SVGID_1_" gradientUnits="userSpaceOnUse" x1="0" y1="35" x2="70" y2="35">
		<stop  offset="0" style="stop-color:#3865D0"/>
		<stop  offset="1" style="stop-color:#2EB3CA"/>
	</linearGradient>
	<circle class="st0" cx="35" cy="35" r="35"/>
	<path class="st1" d="M33.6,28.2l3.6,0.9c0.1,0,0.2,0.1,0.3,0.2c0.1,0.1,0.1,0.2,0.1,0.3c0,0.3-0.3,0.5-0.6,0.5h-2.3
		c-0.3,0-0.5,0-0.7-0.1c-0.3-0.1-0.7-0.1-1,0.1l-1.3,1.1c-0.1,0-0.1,0.1-0.1,0.2c-0.1,0.1-0.1,0.2-0.1,0.3c0,0.1,0,0.2,0,0.3
		c0,0.1,0.1,0.2,0.1,0.3c0.1,0.1,0.1,0.1,0.2,0.2c0.7,0.4,1.5,0.7,2.3,0.7v1.1c0,0.6,0.5,1,1.1,1h1.1c0.6,0,1.1-0.5,1.1-1v-1.1
		c2.2-0.2,3.8-2,3.5-4c-0.2-1.5-1.5-2.6-3.1-3l-3.6-0.9c-0.1,0-0.2-0.1-0.3-0.2C34,24.9,34,24.8,34,24.6c0-0.3,0.3-0.5,0.6-0.5h2.3
		c0.3,0,0.5,0,0.7,0.1c0.3,0.1,0.7,0.1,1-0.1l1.3-1.1c0.1,0,0.1-0.1,0.1-0.2c0.1-0.1,0.1-0.2,0.1-0.3s0-0.2,0-0.3
		c0-0.1-0.1-0.2-0.1-0.3c-0.1-0.1-0.1-0.1-0.2-0.2c-0.7-0.4-1.5-0.7-2.3-0.7V20c0-0.6-0.5-1-1.1-1h-1.1c-0.6,0-1.1,0.5-1.1,1v1.1
		c-2.2,0.2-3.8,2-3.5,4C30.8,26.6,32,27.7,33.6,28.2z M53,39.9c-0.8-0.7-2-0.6-2.8,0l-6.1,4.7c-0.7,0.6-1.7,0.9-2.6,0.9h-7.8
		c-0.3,0-0.5-0.1-0.7-0.3c-0.2-0.2-0.3-0.5-0.3-0.7c0-0.3,0.1-0.5,0.3-0.7c0.2-0.2,0.5-0.3,0.7-0.3h5.2c1,0,2-0.7,2.2-1.7
		c0-0.1,0-0.2,0-0.3c0-0.5-0.2-1.1-0.6-1.4c-0.4-0.4-0.9-0.6-1.5-0.6H28.4c-1.8,0-3.5,0.6-4.9,1.7l-3.1,2.4h-3.6
		c-0.3,0-0.5,0.1-0.7,0.3c-0.2,0.2-0.3,0.5-0.3,0.7v6.1c0,0.3,0.1,0.5,0.3,0.7c0.2,0.2,0.5,0.3,0.7,0.3h23.5c1,0,1.9-0.3,2.6-0.9
		l10-7.7c0.2-0.2,0.4-0.4,0.6-0.7c0.1-0.3,0.2-0.6,0.2-0.9c0-0.3-0.1-0.6-0.2-0.9C53.4,40.3,53.2,40.1,53,39.9z"/>
</g>
</svg>
