<?xml version="1.0" encoding="utf-8"?>
<!-- Generator: Adobe Illustrator 25.0.1, SVG Export Plug-In . SVG Version: 6.00 Build 0)  -->
<svg version="1.1" id="Layer_1" xmlns="http://www.w3.org/2000/svg" xmlns:xlink="http://www.w3.org/1999/xlink" x="0px" y="0px"
	 viewBox="0 0 70 70" style="enable-background:new 0 0 70 70;" xml:space="preserve">
<style type="text/css">
	.st0{fill:url(#SVGID_1_);}
	.st1{fill:#FFFFFF;}
</style>
<g>
	<linearGradient id="SVGID_1_" gradientUnits="userSpaceOnUse" x1="0" y1="35" x2="70" y2="35">
		<stop  offset="0" style="stop-color:#3865D0"/>
		<stop  offset="1" style="stop-color:#2EB3CA"/>
	</linearGradient>
	<circle class="st0" cx="35" cy="35" r="35"/>
	<path class="st1" d="M55.4,40.4c0.2-0.9,0.2-1.9,0-2.8l1.7-1c0.2-0.1,0.3-0.3,0.2-0.6c-0.4-1.4-1.2-2.7-2.2-3.8
		c-0.2-0.2-0.4-0.2-0.6-0.1l-1.7,1c-0.7-0.6-1.5-1.1-2.4-1.4v-2c0-0.2-0.2-0.4-0.4-0.5c-1.5-0.3-3-0.3-4.4,0c-0.2,0-0.4,0.2-0.4,0.5
		v2c-0.9,0.3-1.7,0.8-2.4,1.4l-1.7-1c-0.2-0.1-0.4-0.1-0.6,0.1c-1,1.1-1.7,2.4-2.2,3.8c-0.1,0.2,0,0.4,0.2,0.6l1.7,1
		c-0.2,0.9-0.2,1.9,0,2.8l-1.7,1c-0.2,0.1-0.3,0.3-0.2,0.6c0.4,1.4,1.2,2.7,2.2,3.8c0.2,0.2,0.4,0.2,0.6,0.1l1.7-1
		c0.7,0.6,1.5,1.1,2.4,1.4v2c0,0.2,0.2,0.4,0.4,0.5c1.5,0.3,3,0.3,4.4,0c0.2,0,0.4-0.2,0.4-0.5v-2c0.9-0.3,1.7-0.8,2.4-1.4l1.7,1
		c0.2,0.1,0.4,0.1,0.6-0.1c1-1.1,1.7-2.4,2.2-3.8c0.1-0.2,0-0.4-0.2-0.6L55.4,40.4z M47.8,42.2c-1.8,0-3.2-1.4-3.2-3.2
		c0-1.8,1.4-3.2,3.2-3.2c1.8,0,3.2,1.4,3.2,3.2C51,40.7,49.6,42.2,47.8,42.2z M21.5,32.6c2.3,0,4.2-1.9,4.2-4.2
		c0-2.3-1.9-4.2-4.2-4.2c-2.3,0-4.2,1.9-4.2,4.2C17.3,30.7,19.2,32.6,21.5,32.6z M36.2,34.7c0.1,0,0.2,0,0.4,0
		c0.5-1.4,1.3-2.8,2.4-3.9c0.5-0.5,1.2-0.8,1.9-0.8c0.5,0,0.9,0.1,1.3,0.3l0.5,0.3c0.1,0,0.1-0.1,0.2-0.1c0.5-1,0.7-2,0.7-3.2
		c0-4.1-3.3-7.4-7.4-7.4c-4.1,0-7.4,3.3-7.4,7.4S32.2,34.7,36.2,34.7z M43.2,47.5c-0.2-0.1-0.3-0.2-0.4-0.3c-0.5,0.3-1,0.6-1.8,0.6
		c-0.7,0-1.4-0.3-1.9-0.8c-1.2-1.3-2.1-2.9-2.6-4.6c-0.7-2.3,1.6-3.3,1.7-3.3c0-0.2,0-0.3,0-0.5l-0.5-0.3c-0.3-0.1-0.5-0.3-0.6-0.5
		c-0.2,0-0.4,0-0.6,0c-1.6,0-3.1-0.4-4.5-1.1h-0.5c-4.2,0-7.6,3.4-7.6,7.6v1.9c0,1.7,1.4,3.2,3.2,3.2h16.8c-0.2-0.4-0.4-0.8-0.4-1.3
		V47.5z M26.6,36c-0.8-0.8-1.8-1.2-3-1.2h-4.2c-2.3,0-4.2,1.9-4.2,4.2v2.1c0,1.2,0.9,2.1,2.1,2.1h4.3C22,40.1,23.9,37.4,26.6,36z"/>
</g>
</svg>
