<svg width="22" height="22" viewBox="0 0 22 22" fill="none" xmlns="http://www.w3.org/2000/svg">
<path d="M22 11C22 4.92422 17.0758 0 11 0C4.92422 0 0 4.92422 0 11C0 17.0758 4.92422 22 11 22C11.0645 22 11.1289 22 11.1934 21.9957V13.4363H8.83008V10.682H11.1934V8.65391C11.1934 6.30352 12.6285 5.02305 14.7254 5.02305C15.7309 5.02305 16.5945 5.09609 16.8438 5.13047V7.58828H15.4C14.2613 7.58828 14.0379 8.12969 14.0379 8.92461V10.6777H16.7664L16.4098 13.432H14.0379V21.5746C18.6355 20.2555 22 16.023 22 11Z" fill="#36CBBA"/>
</svg>
