<svg width="22" height="22" viewBox="0 0 22 22" fill="none" xmlns="http://www.w3.org/2000/svg">
<path d="M11 22C17.072 22 22 17.072 22 11C22 4.928 17.072 0 11 0C4.928 0 0 4.928 0 11C0 17.072 4.928 22 11 22ZM14.9261 10.2144H16.5009V8.6405H18.0758V10.2153H19.6368V11.7902H18.0758V13.365H16.5009V11.7902H14.9261V10.2144ZM7.86408 5.49908C9.25192 5.49908 10.5297 5.98767 11.5463 6.93183L10.0558 8.37833C9.47008 7.80542 8.668 7.53133 7.86408 7.53133C5.96108 7.53133 4.43942 9.10617 4.43942 10.9954C4.43942 12.8847 5.9565 14.4595 7.86408 14.4595C9.30967 14.4595 10.7424 13.6125 10.9734 12.0954H7.86408V10.2062H13.0497C13.1074 10.5078 13.134 10.8093 13.134 11.1238C13.134 14.2643 11.0266 16.4991 7.86408 16.4991V16.5C4.8125 16.5 2.36317 14.0378 2.36317 10.9991C2.36317 7.96033 4.8125 5.49908 7.86408 5.49908Z" fill="#36CBBA"/>
</svg>
