<svg width="22" height="23" viewBox="0 0 22 23" fill="none" xmlns="http://www.w3.org/2000/svg">
<path d="M13.1055 11.6798C13.1055 12.8263 12.1628 13.7556 11 13.7556C9.83716 13.7556 8.89453 12.8263 8.89453 11.6798C8.89453 10.5334 9.83716 9.604 11 9.604C12.1628 9.604 13.1055 10.5334 13.1055 11.6798Z" fill="#36CBBA"/>
<path d="M15.924 8.00729C15.8227 7.73689 15.6613 7.49214 15.4515 7.29125C15.2477 7.08439 14.9996 6.9252 14.7252 6.82541C14.5026 6.74019 14.1683 6.63875 13.5524 6.61111C12.8863 6.58116 12.6865 6.57471 11 6.57471C9.31331 6.57471 9.11357 6.581 8.44756 6.61095C7.83173 6.63875 7.49721 6.74019 7.27481 6.82541C7.00038 6.9252 6.75214 7.08439 6.54854 7.29125C6.33873 7.49214 6.17726 7.73673 6.07588 8.00729C5.98944 8.22672 5.88655 8.55653 5.85852 9.16368C5.82814 9.82032 5.82159 10.0172 5.82159 11.6802C5.82159 13.3429 5.82814 13.5399 5.85852 14.1967C5.88655 14.8038 5.98944 15.1335 6.07588 15.3529C6.17726 15.6235 6.33856 15.868 6.54837 16.0689C6.75214 16.2758 7.00021 16.435 7.27464 16.5348C7.49721 16.6202 7.83173 16.7216 8.44756 16.7492C9.11357 16.7792 9.31314 16.7855 10.9998 16.7855C12.6867 16.7855 12.8864 16.7792 13.5523 16.7492C14.1681 16.7216 14.5026 16.6202 14.7252 16.5348C15.2761 16.3253 15.7115 15.896 15.924 15.3529C16.0104 15.1335 16.1133 14.8038 16.1415 14.1967C16.1719 13.5399 16.1782 13.3429 16.1782 11.6802C16.1782 10.0172 16.1719 9.82032 16.1415 9.16368C16.1134 8.55653 16.0106 8.22672 15.924 8.00729ZM11 14.8778C9.20857 14.8778 7.75636 13.4462 7.75636 11.68C7.75636 9.91382 9.20857 8.48223 11 8.48223C12.7913 8.48223 14.2435 9.91382 14.2435 11.68C14.2435 13.4462 12.7913 14.8778 11 14.8778ZM14.3717 9.10312C13.9531 9.10312 13.6137 8.76851 13.6137 8.3558C13.6137 7.94308 13.9531 7.60848 14.3717 7.60848C14.7903 7.60848 15.1297 7.94308 15.1297 8.3558C15.1295 8.76851 14.7903 9.10312 14.3717 9.10312Z" fill="#36CBBA"/>
<path d="M11 0.834961C4.9258 0.834961 0 5.69138 0 11.68C0 17.6687 4.9258 22.5251 11 22.5251C17.0742 22.5251 22 17.6687 22 11.68C22 5.69138 17.0742 0.834961 11 0.834961ZM17.2783 14.2475C17.2478 14.9104 17.1408 15.363 16.9847 15.7592C16.6566 16.5957 15.9859 17.257 15.1374 17.5805C14.7358 17.7344 14.2765 17.8396 13.6043 17.8699C12.9307 17.9002 12.7156 17.9075 11.0002 17.9075C9.28461 17.9075 9.0696 17.9002 8.39586 17.8699C7.72363 17.8396 7.2644 17.7344 6.86275 17.5805C6.44112 17.4241 6.05943 17.179 5.74388 16.8621C5.42262 16.5512 5.17404 16.1747 5.01543 15.7592C4.85933 15.3632 4.75241 14.9104 4.72186 14.2477C4.69081 13.5834 4.68359 13.3713 4.68359 11.68C4.68359 9.9888 4.69081 9.77665 4.72169 9.11257C4.75224 8.44965 4.85899 7.99705 5.01509 7.60088C5.17371 7.18536 5.42245 6.80888 5.74388 6.49794C6.05927 6.18104 6.44112 5.93596 6.86258 5.77958C7.2644 5.62568 7.72346 5.52044 8.39586 5.49015C9.06943 5.45987 9.28461 5.45259 11 5.45259C12.7154 5.45259 12.9306 5.45987 13.6041 5.49032C14.2765 5.52044 14.7356 5.62568 15.1374 5.77942C15.5589 5.9358 15.9407 6.18104 16.2563 6.49794C16.5775 6.80905 16.8263 7.18536 16.9847 7.60088C17.141 7.99705 17.2478 8.44965 17.2785 9.11257C17.3092 9.77665 17.3164 9.9888 17.3164 11.68C17.3164 13.3713 17.3092 13.5834 17.2783 14.2475Z" fill="#36CBBA"/>
</svg>
