<svg width="22" height="22" viewBox="0 0 22 22" fill="none" xmlns="http://www.w3.org/2000/svg">
<path d="M12.2219 10.2163L10.7093 9.88058C10.1339 9.7495 9.47157 9.57628 9.47157 9.0338C9.47157 8.49014 9.93617 8.11031 10.7749 8.11031C12.4653 8.11031 12.3109 9.27197 13.1501 9.27197C13.5917 9.27197 13.9783 9.01231 13.9783 8.56584C13.9783 7.52402 12.3109 6.74219 10.8964 6.74219C9.36096 6.74219 7.7258 7.39427 7.7258 9.13098C7.7258 9.96736 8.02457 10.8571 9.67047 11.2699L11.7142 11.7801C12.3327 11.9325 12.4874 12.2805 12.4874 12.5943C12.4874 13.1163 11.969 13.6263 11.0297 13.6263C9.19496 13.6263 9.44958 12.2143 8.46634 12.2143C8.02457 12.2143 7.70398 12.5186 7.70398 12.9529C7.70398 13.7995 8.73187 14.9292 11.0297 14.9292C13.2159 14.9292 14.2992 13.8755 14.2992 12.4642C14.2992 11.553 13.8791 10.5855 12.2219 10.2163Z" fill="#36CBBA"/>
<path d="M11 0C4.9258 0 0 4.9258 0 11C0 17.0742 4.9258 22 11 22C17.0742 22 22 17.0742 22 11C22 4.9258 17.0742 0 11 0ZM16.7271 16.7108C16.0038 17.4344 15.0428 17.832 14.0202 17.832C13.3579 17.832 12.7094 17.6598 12.1365 17.3357C11.7647 17.4017 11.3839 17.4364 11.0039 17.4364C10.1307 17.4364 9.28343 17.2652 8.48633 16.9273C7.71558 16.6024 7.02422 16.1356 6.42987 15.5416C5.8362 14.9478 5.36992 14.2564 5.04446 13.486C4.70676 12.6884 4.53589 11.8416 4.53589 10.9683C4.53589 10.5943 4.56946 10.2198 4.63324 9.85344C4.31886 9.28796 4.15152 8.64813 4.15152 7.99706C4.15152 6.97437 4.54999 6.01277 5.2729 5.28969C5.99615 4.56627 6.95775 4.16797 7.98044 4.16797C8.60684 4.16797 9.22586 4.32423 9.77606 4.61679C9.77707 4.61662 9.77824 4.61662 9.77908 4.61629C10.1802 4.53941 10.5923 4.50064 11.0039 4.50064C11.8768 4.50064 12.724 4.67168 13.5211 5.00888C14.291 5.33467 14.9832 5.80095 15.5767 6.39479C16.171 6.9888 16.6371 7.6805 16.9629 8.45074C17.3006 9.24818 17.4715 10.0951 17.4715 10.9683C17.4715 11.3619 17.4344 11.7558 17.3637 12.1407C17.6803 12.7083 17.8486 13.3504 17.8486 14.0036C17.8485 15.0263 17.4505 15.9881 16.7271 16.7108Z" fill="#36CBBA"/>
</svg>
