<svg width="22" height="22" viewBox="0 0 22 22" fill="none" xmlns="http://www.w3.org/2000/svg">
<path d="M11 0C4.9258 0 0 4.9258 0 11C0 17.0742 4.9258 22 11 22C17.0742 22 22 17.0742 22 11C22 4.9258 17.0742 0 11 0ZM16.0225 8.57663C16.0273 8.68489 16.0297 8.79366 16.0297 8.90292C16.0297 12.2392 13.4902 16.0864 8.84602 16.0866H8.84619H8.84602C7.42017 16.0866 6.09334 15.6687 4.97598 14.9525C5.17354 14.9758 5.37462 14.9874 5.57822 14.9874C6.7612 14.9874 7.84985 14.5839 8.7141 13.9066C7.60883 13.8861 6.67694 13.1562 6.35535 12.1529C6.50926 12.1825 6.66754 12.1986 6.82985 12.1986C7.0603 12.1986 7.28354 12.1675 7.4957 12.1096C6.34041 11.8783 5.47012 10.8573 5.47012 9.63474C5.47012 9.62332 5.47012 9.61308 5.47046 9.60251C5.81068 9.79167 6.19975 9.90547 6.614 9.91823C5.93607 9.46588 5.49043 8.69261 5.49043 7.81662C5.49043 7.35403 5.61548 6.92065 5.83234 6.54753C7.07742 8.07527 8.93817 9.08 11.0366 9.18558C10.9933 9.00061 10.971 8.80792 10.971 8.60986C10.971 7.21606 12.1017 6.08528 13.496 6.08528C14.2223 6.08528 14.8783 6.39227 15.339 6.88306C15.9142 6.76959 16.4543 6.55945 16.9423 6.27025C16.7534 6.85956 16.3533 7.35403 15.832 7.66673C16.3427 7.60564 16.8295 7.47018 17.2818 7.2691C16.944 7.7755 16.5154 8.22029 16.0225 8.57663Z" fill="#36CBBA"/>
</svg>
