<svg width="50" height="50" viewBox="0 0 50 50" fill="none" xmlns="http://www.w3.org/2000/svg">
<circle cx="25" cy="25" r="25" fill="#1BA494"/>
<path d="M33.6894 39.9996H16.1034C15.2803 39.9996 14.491 39.6726 13.909 39.0906C13.327 38.5086 13 37.7192 13 36.8962V13.1034C13 12.2803 13.327 11.491 13.909 10.909C14.491 10.327 15.2803 10 16.1034 10H30.586L36.7928 16.2068V36.8962C36.7928 37.7192 36.4658 38.5086 35.8838 39.0906C35.3018 39.6726 34.5124 39.9996 33.6894 39.9996Z" fill="white"/>
<path d="M17.1379 17.2412H22.3102V23.448H17.1379V17.2412Z" fill="#36CBBA"/>
<path d="M13 31.7236H36.7928V36.896C36.7928 37.719 36.4658 38.5084 35.8838 39.0904C35.3018 39.6724 34.5124 39.9994 33.6894 39.9994H16.1034C15.2803 39.9994 14.491 39.6724 13.909 39.0904C13.327 38.5084 13 37.719 13 36.896V31.7236Z" fill="white"/>
<path d="M36.7928 16.2068H33.6894C32.8663 16.2068 32.0769 15.8798 31.4949 15.2978C30.9129 14.7158 30.586 13.9265 30.586 13.1034V10L36.7928 16.2068Z" fill="#36CBBA"/>
<path d="M32.6549 19.8274H24.3792C24.242 19.8274 24.1104 19.7729 24.0134 19.6759C23.9164 19.5789 23.8619 19.4474 23.8619 19.3102C23.8619 19.173 23.9164 19.0415 24.0134 18.9445C24.1104 18.8475 24.242 18.793 24.3792 18.793H32.6549C32.7921 18.793 32.9236 18.8475 33.0206 18.9445C33.1176 19.0415 33.1721 19.173 33.1721 19.3102C33.1721 19.4474 33.1176 19.5789 33.0206 19.6759C32.9236 19.7729 32.7921 19.8274 32.6549 19.8274Z" fill="#36CBBA"/>
<path d="M26.4481 21.8963H24.3792C24.242 21.8963 24.1104 21.8418 24.0134 21.7448C23.9164 21.6478 23.8619 21.5162 23.8619 21.3791C23.8619 21.2419 23.9164 21.1103 24.0134 21.0133C24.1104 20.9163 24.242 20.8618 24.3792 20.8618H26.4481C26.5853 20.8618 26.7168 20.9163 26.8138 21.0133C26.9108 21.1103 26.9653 21.2419 26.9653 21.3791C26.9653 21.5162 26.9108 21.6478 26.8138 21.7448C26.7168 21.8418 26.5853 21.8963 26.4481 21.8963Z" fill="#36CBBA"/>
<path d="M32.6549 23.9651H24.3792C24.242 23.9651 24.1104 23.9106 24.0134 23.8136C23.9164 23.7166 23.8619 23.5851 23.8619 23.4479C23.8619 23.3107 23.9164 23.1792 24.0134 23.0822C24.1104 22.9852 24.242 22.9307 24.3792 22.9307H32.6549C32.7921 22.9307 32.9236 22.9852 33.0206 23.0822C33.1176 23.1792 33.1721 23.3107 33.1721 23.4479C33.1721 23.5851 33.1176 23.7166 33.0206 23.8136C32.9236 23.9106 32.7921 23.9651 32.6549 23.9651Z" fill="#36CBBA"/>
<path d="M29.0343 26.0345H17.1379C17.0007 26.0345 16.8691 25.98 16.7721 25.883C16.6751 25.786 16.6206 25.6544 16.6206 25.5172C16.6206 25.3801 16.6751 25.2485 16.7721 25.1515C16.8691 25.0545 17.0007 25 17.1379 25H29.0343C29.1714 25 29.303 25.0545 29.4 25.1515C29.497 25.2485 29.5515 25.3801 29.5515 25.5172C29.5515 25.6544 29.497 25.786 29.4 25.883C29.303 25.98 29.1714 26.0345 29.0343 26.0345Z" fill="#36CBBA"/>
<path d="M32.6549 21.8963H28.517C28.3798 21.8963 28.2483 21.8418 28.1513 21.7448C28.0543 21.6478 27.9998 21.5162 27.9998 21.3791C27.9998 21.2419 28.0543 21.1103 28.1513 21.0133C28.2483 20.9163 28.3798 20.8618 28.517 20.8618H32.6549C32.7921 20.8618 32.9236 20.9163 33.0206 21.0133C33.1176 21.1103 33.1721 21.2419 33.1721 21.3791C33.1721 21.5162 33.1176 21.6478 33.0206 21.7448C32.9236 21.8418 32.7921 21.8963 32.6549 21.8963Z" fill="#36CBBA"/>
<path d="M32.6549 26.0345H31.1032C30.966 26.0345 30.8345 25.98 30.7375 25.883C30.6405 25.786 30.586 25.6544 30.586 25.5172C30.586 25.3801 30.6405 25.2485 30.7375 25.1515C30.8345 25.0545 30.966 25 31.1032 25H32.6549C32.7921 25 32.9236 25.0545 33.0206 25.1515C33.1176 25.2485 33.1721 25.3801 33.1721 25.5172C33.1721 25.6544 33.1176 25.786 33.0206 25.883C32.9236 25.98 32.7921 26.0345 32.6549 26.0345Z" fill="#36CBBA"/>
<path d="M20.2413 28.1028H17.1379C17.0007 28.1028 16.8691 28.0483 16.7721 27.9513C16.6751 27.8543 16.6206 27.7228 16.6206 27.5856C16.6206 27.4484 16.6751 27.3169 16.7721 27.2199C16.8691 27.1229 17.0007 27.0684 17.1379 27.0684H20.2413C20.3785 27.0684 20.51 27.1229 20.607 27.2199C20.704 27.3169 20.7585 27.4484 20.7585 27.5856C20.7585 27.7228 20.704 27.8543 20.607 27.9513C20.51 28.0483 20.3785 28.1028 20.2413 28.1028Z" fill="#36CBBA"/>
<path d="M27.4826 28.1028H22.3102C22.173 28.1028 22.0415 28.0483 21.9445 27.9513C21.8475 27.8543 21.793 27.7228 21.793 27.5856C21.793 27.4484 21.8475 27.3169 21.9445 27.2199C22.0415 27.1229 22.173 27.0684 22.3102 27.0684H27.4826C27.6197 27.0684 27.7513 27.1229 27.8483 27.2199C27.9453 27.3169 27.9998 27.4484 27.9998 27.5856C27.9998 27.7228 27.9453 27.8543 27.8483 27.9513C27.7513 28.0483 27.6197 28.1028 27.4826 28.1028Z" fill="#36CBBA"/>
<path d="M32.6549 28.1028H29.5515C29.4143 28.1028 29.2828 28.0483 29.1857 27.9513C29.0887 27.8543 29.0343 27.7228 29.0343 27.5856C29.0343 27.4484 29.0887 27.3169 29.1857 27.2199C29.2828 27.1229 29.4143 27.0684 29.5515 27.0684H32.6549C32.7921 27.0684 32.9236 27.1229 33.0206 27.2199C33.1176 27.3169 33.1721 27.4484 33.1721 27.5856C33.1721 27.7228 33.1176 27.8543 33.0206 27.9513C32.9236 28.0483 32.7921 28.1028 32.6549 28.1028Z" fill="#36CBBA"/>
<path d="M28.517 17.7586H24.3792C24.242 17.7586 24.1104 17.7041 24.0134 17.6071C23.9164 17.5101 23.8619 17.3785 23.8619 17.2414C23.8619 17.1042 23.9164 16.9726 24.0134 16.8756C24.1104 16.7786 24.242 16.7241 24.3792 16.7241H28.517C28.6542 16.7241 28.7858 16.7786 28.8828 16.8756C28.9798 16.9726 29.0343 17.1042 29.0343 17.2414C29.0343 17.3785 28.9798 17.5101 28.8828 17.6071C28.7858 17.7041 28.6542 17.7586 28.517 17.7586Z" fill="#36CBBA"/>
<path d="M30.0687 33.2754H27.9998C27.8626 33.2754 27.7311 33.3299 27.6341 33.4269C27.5371 33.5239 27.4826 33.6554 27.4826 33.7926V37.9305C27.4826 38.0677 27.5371 38.1992 27.6341 38.2962C27.7311 38.3932 27.8626 38.4477 27.9998 38.4477C28.137 38.4477 28.2685 38.3932 28.3655 38.2962C28.4625 38.1992 28.517 38.0677 28.517 37.9305V36.3788H29.0343C29.1714 36.3788 29.303 36.3243 29.4 36.2273C29.497 36.1303 29.5515 35.9987 29.5515 35.8616C29.5515 35.7244 29.497 35.5928 29.4 35.4958C29.303 35.3988 29.1714 35.3443 29.0343 35.3443H28.517V34.3099H30.0687C30.2059 34.3099 30.3375 34.2554 30.4345 34.1584C30.5315 34.0614 30.586 33.9298 30.586 33.7926C30.586 33.6554 30.5315 33.5239 30.4345 33.4269C30.3375 33.3299 30.2059 33.2754 30.0687 33.2754Z" fill="#36CBBA"/>
<path d="M20.7585 33.2754H19.724C19.5869 33.2754 19.4553 33.3299 19.3583 33.4269C19.2613 33.5239 19.2068 33.6554 19.2068 33.7926V37.9305C19.2068 38.0677 19.2613 38.1992 19.3583 38.2962C19.4553 38.3932 19.5869 38.4477 19.724 38.4477C19.8612 38.4477 19.9928 38.3932 20.0898 38.2962C20.1868 38.1992 20.2413 38.0677 20.2413 37.9305V36.3788H20.7585C21.17 36.3788 21.5647 36.2153 21.8557 35.9243C22.1467 35.6333 22.3102 35.2386 22.3102 34.8271C22.3102 34.4156 22.1467 34.0209 21.8557 33.7299C21.5647 33.4389 21.17 33.2754 20.7585 33.2754ZM20.7585 35.3443H20.2413V34.3099H20.7585C20.8957 34.3099 21.0272 34.3644 21.1242 34.4614C21.2212 34.5584 21.2757 34.6899 21.2757 34.8271C21.2757 34.9643 21.2212 35.0958 21.1242 35.1928C21.0272 35.2898 20.8957 35.3443 20.7585 35.3443Z" fill="#36CBBA"/>
<path d="M23.8619 33.2754C23.7247 33.2754 23.5932 33.3299 23.4962 33.4269C23.3992 33.5239 23.3447 33.6554 23.3447 33.7926V37.9305C23.3447 38.0677 23.3992 38.1992 23.4962 38.2962C23.5932 38.3932 23.7247 38.4477 23.8619 38.4477C24.5478 38.4477 25.2056 38.1753 25.6906 37.6903C26.1756 37.2053 26.4481 36.5475 26.4481 35.8616C26.4481 35.1757 26.1756 34.5179 25.6906 34.0329C25.2056 33.5479 24.5478 33.2754 23.8619 33.2754ZM24.3791 37.3246V34.3985C24.6818 34.5054 24.9438 34.7035 25.1291 34.9656C25.3144 35.2276 25.4139 35.5406 25.4139 35.8616C25.4139 36.1825 25.3144 36.4955 25.1291 36.7576C24.9438 37.0196 24.6818 37.2177 24.3791 37.3246Z" fill="#36CBBA"/>
</svg>
