<svg width="40" height="40" viewBox="0 0 40 40" fill="none" xmlns="http://www.w3.org/2000/svg">
<path d="M26.6778 26.4285C30.9343 19.7494 30.3992 20.5827 30.5219 20.4085C32.0716 18.2227 32.8906 15.6502 32.8906 12.9688C32.8906 5.85781 27.1202 0 20 0C12.903 0 7.10938 5.84625 7.10938 12.9688C7.10938 15.6484 7.94563 18.2884 9.54609 20.5036L13.322 26.4286C9.28492 27.049 2.42188 28.8978 2.42188 32.9688C2.42188 34.4527 3.39047 36.5676 8.00484 38.2155C11.2269 39.3662 15.4868 40 20 40C28.4395 40 37.5781 37.6194 37.5781 32.9688C37.5781 28.8971 30.7231 27.0502 26.6778 26.4285ZM11.5038 19.2145C11.4909 19.1943 11.4775 19.1746 11.4634 19.1552C10.1316 17.323 9.45312 15.1516 9.45312 12.9688C9.45312 7.10797 14.1723 2.34375 20 2.34375C25.8155 2.34375 30.5469 7.11008 30.5469 12.9688C30.5469 15.1552 29.8812 17.2529 28.6214 19.0368C28.5085 19.1857 29.0975 18.2707 20 32.546L11.5038 19.2145ZM20 37.6562C10.7817 37.6562 4.76562 34.9466 4.76562 32.9688C4.76562 31.6394 7.85687 29.4535 14.7069 28.6015L19.0117 35.3564C19.2269 35.6941 19.5995 35.8984 19.9999 35.8984C20.4003 35.8984 20.773 35.694 20.9881 35.3564L25.2929 28.6015C32.143 29.4535 35.2344 31.6394 35.2344 32.9688C35.2344 34.9298 29.2724 37.6562 20 37.6562Z" fill="#36CBBA"/>
<path d="M20 7.10938C16.7691 7.10938 14.1406 9.73789 14.1406 12.9688C14.1406 16.1996 16.7691 18.8281 20 18.8281C23.2309 18.8281 25.8594 16.1996 25.8594 12.9688C25.8594 9.73789 23.2309 7.10938 20 7.10938ZM20 16.4844C18.0615 16.4844 16.4844 14.9073 16.4844 12.9688C16.4844 11.0302 18.0615 9.45312 20 9.45312C21.9385 9.45312 23.5156 11.0302 23.5156 12.9688C23.5156 14.9073 21.9385 16.4844 20 16.4844Z" fill="#36CBBA"/>
</svg>
