<svg width="40" height="40" viewBox="0 0 40 40" fill="none" xmlns="http://www.w3.org/2000/svg">
<path d="M31.6295 24.7786C30.8094 23.9259 29.8202 23.47 28.7719 23.47C27.7319 23.47 26.7343 23.9175 25.8804 24.7701L23.2087 27.4295C22.9889 27.3113 22.7691 27.2015 22.5577 27.0918C22.2534 26.9398 21.9659 26.7963 21.7207 26.6443C19.2182 25.0572 16.9439 22.9888 14.7626 20.3126C13.7058 18.9787 12.9956 17.8559 12.4799 16.7162C13.1732 16.083 13.8157 15.4245 14.4414 14.7914C14.6781 14.555 14.9148 14.3102 15.1515 14.0738C16.927 12.3009 16.927 10.0046 15.1515 8.23171L12.8435 5.92697C12.5814 5.66526 12.3108 5.39511 12.0572 5.12495C11.5499 4.60153 11.0173 4.06123 10.4677 3.55469C9.64763 2.74423 8.6669 2.31367 7.63544 2.31367C6.60399 2.31367 5.60635 2.74423 4.76089 3.55469C4.75244 3.56313 4.75244 3.56313 4.74398 3.57157L1.86943 6.46728C0.787245 7.54789 0.170062 8.86488 0.0347893 10.3929C-0.16812 12.8581 0.558972 15.1544 1.11697 16.6571C2.48661 20.3464 4.53262 23.7655 7.58471 27.4295C11.2878 31.8448 15.7434 35.3314 20.833 37.7881C22.7776 38.7083 25.3731 39.7974 28.273 39.9831C28.4506 39.9916 28.6366 40 28.8057 40C30.7587 40 32.3989 39.2993 33.684 37.9063C33.6924 37.8894 33.7093 37.881 33.7178 37.8641C34.1574 37.3322 34.6647 36.851 35.1973 36.3361C35.5609 35.9899 35.9329 35.6269 36.2964 35.247C37.1334 34.3774 37.5731 33.3644 37.5731 32.326C37.5731 31.2791 37.125 30.2745 36.271 29.4303L31.6295 24.7786ZM34.6562 33.6683C34.6478 33.6683 34.6478 33.6767 34.6562 33.6683C34.3265 34.0229 33.9883 34.3437 33.6248 34.6983C33.0752 35.2217 32.5172 35.7704 31.993 36.3867C31.1391 37.2985 30.133 37.729 28.8141 37.729C28.6873 37.729 28.552 37.729 28.4252 37.7206C25.9142 37.5602 23.5807 36.5809 21.8307 35.7451C17.0454 33.4319 12.8435 30.1479 9.35172 25.9858C6.46871 22.516 4.54107 19.308 3.26443 15.8635C2.47816 13.7614 2.1907 12.1236 2.31752 10.5787C2.40207 9.59092 2.78252 8.77202 3.48425 8.07131L6.36726 5.19249C6.78153 4.80415 7.22117 4.59309 7.65235 4.59309C8.18499 4.59309 8.61617 4.9139 8.88672 5.18405C8.89517 5.19249 8.90363 5.20093 8.91208 5.20938C9.42781 5.69059 9.91817 6.18868 10.4339 6.72054C10.696 6.9907 10.9665 7.26085 11.2371 7.53944L13.5452 9.84419C14.4414 10.7391 14.4414 11.5664 13.5452 12.4613C13.3 12.7061 13.0633 12.9509 12.8181 13.1873C12.1079 13.9134 11.4315 14.5887 10.696 15.2472C10.6791 15.2641 10.6622 15.2726 10.6537 15.2895C9.92663 16.0155 10.0619 16.7246 10.2141 17.2059C10.2225 17.2312 10.231 17.2565 10.2394 17.2818C10.8397 18.7339 11.6852 20.1016 12.9703 21.7309L12.9787 21.7394C15.3122 24.6097 17.7725 26.8469 20.4864 28.5607C20.833 28.7802 21.1881 28.9575 21.5263 29.1263C21.8307 29.2783 22.1181 29.4218 22.3633 29.5738C22.3971 29.5907 22.4309 29.616 22.4647 29.6329C22.7522 29.7764 23.0227 29.8439 23.3017 29.8439C24.0035 29.8439 24.4431 29.4049 24.5868 29.2614L27.4783 26.3742C27.7658 26.0871 28.2223 25.741 28.7549 25.741C29.2791 25.741 29.7103 26.0702 29.9724 26.3573C29.9809 26.3657 29.9809 26.3657 29.9893 26.3742L34.6478 31.0259C35.5186 31.887 35.5186 32.7734 34.6562 33.6683Z" fill="#36CBBA"/>
<path d="M21.6192 9.51493C23.8343 9.88639 25.8465 10.9332 27.4528 12.5373C29.0592 14.1413 30.0991 16.1506 30.4796 18.3624C30.5726 18.9196 31.0545 19.308 31.604 19.308C31.6717 19.308 31.7308 19.2995 31.7985 19.2911C32.4241 19.1898 32.8384 18.5988 32.7369 17.9741C32.2804 15.2979 31.0122 12.8581 29.0761 10.9248C27.14 8.99151 24.6966 7.72517 22.0165 7.26929C21.3909 7.16798 20.8075 7.58165 20.6976 8.19794C20.5877 8.81422 20.9935 9.41363 21.6192 9.51493Z" fill="#36CBBA"/>
<path d="M39.9828 17.6448C39.2303 13.238 37.1505 9.2279 33.9547 6.03672C30.7588 2.84554 26.7429 0.768738 22.3296 0.0173755C21.7125 -0.0923741 21.1291 0.32974 21.0192 0.946026C20.9177 1.57075 21.332 2.15327 21.9576 2.26302C25.8975 2.92996 29.4907 4.7957 32.3483 7.64075C35.2059 10.4942 37.0659 14.0822 37.7339 18.0163C37.8268 18.5735 38.3088 18.9618 38.8583 18.9618C38.9259 18.9618 38.9851 18.9534 39.0528 18.945C39.6699 18.8521 40.0927 18.2611 39.9828 17.6448Z" fill="#36CBBA"/>
</svg>
