<svg width="40" height="31" viewBox="0 0 40 31" fill="none" xmlns="http://www.w3.org/2000/svg">
<path d="M36.4844 0H3.51562C1.57953 0 0 1.57781 0 3.51562V26.9531C0 28.8844 1.5725 30.4688 3.51562 30.4688H36.4844C38.4156 30.4688 40 28.8962 40 26.9531V3.51562C40 1.58438 38.4275 0 36.4844 0ZM35.9989 2.34375L20.0745 18.2682L4.01242 2.34375H35.9989ZM2.34375 26.4678V3.98977L13.6312 15.1804L2.34375 26.4678ZM4.00102 28.125L15.2955 16.8305L19.2531 20.7541C19.7113 21.2083 20.4505 21.2068 20.9068 20.7505L24.7656 16.8916L35.999 28.125H4.00102ZM37.6562 26.4677L26.4229 15.2344L37.6562 4.00094V26.4677Z" fill="#36CBBA"/>
</svg>
