<svg width="30" height="40" viewBox="0 0 30 40" fill="none" xmlns="http://www.w3.org/2000/svg">
<path d="M29.7559 8.5775L21.4225 0.244141C21.2663 0.0878906 21.0547 0 20.8333 0H3.33328C1.49492 0 0 1.49492 0 3.33336V36.6667C0 38.5051 1.49492 40 3.33336 40H26.6667C28.5051 40 30 38.5051 30 36.6666V9.16664C30 8.94531 29.9121 8.73375 29.7559 8.5775ZM21.6666 2.84508L27.1549 8.33336H23.3333C22.4145 8.33336 21.6666 7.58547 21.6666 6.66672V2.84508ZM28.3334 36.6666C28.3334 37.5854 27.5855 38.3333 26.6667 38.3333H3.33336C2.41461 38.3333 1.66672 37.5854 1.66672 36.6666V3.33336C1.66672 2.41461 2.41461 1.66672 3.33336 1.66672H20V6.66672C20 8.50508 21.4949 10 23.3334 10H28.3334V36.6666Z" fill="white"/>
<path d="M19.2488 24.4637C18.4773 23.8566 17.7441 23.2324 17.2559 22.7441C16.6211 22.1094 16.0555 21.4941 15.564 20.9082C16.3306 18.5392 16.6667 17.3177 16.6667 16.6666C16.6667 13.9005 15.6673 13.3333 14.1667 13.3333C13.0266 13.3333 11.6667 13.9257 11.6667 16.7464C11.6667 17.9899 12.3479 19.4995 13.698 21.2541C13.3676 22.2623 12.9794 23.4253 12.5432 24.7363C12.3332 25.3654 12.1054 25.948 11.8645 26.4868C11.6684 26.5739 11.4779 26.6626 11.294 26.7545C10.6316 27.0858 10.0025 27.3836 9.41898 27.6603C6.75781 28.9201 5 29.7534 5 31.3989C5 32.5936 6.29805 33.3333 7.5 33.3333C9.04945 33.3333 11.3891 31.2637 13.0981 27.7774C14.8722 27.0776 17.0777 26.5591 18.8184 26.2344C20.2132 27.307 21.7537 28.3333 22.5 28.3333C24.5662 28.3333 25 27.1386 25 26.1368C25 24.1666 22.749 24.1666 21.6666 24.1666C21.3305 24.1666 20.4289 24.2659 19.2488 24.4637ZM7.5 31.6666C7.02391 31.6666 6.70164 31.442 6.66664 31.3989C6.66664 30.808 8.42852 29.9731 10.1327 29.1659C10.2409 29.1146 10.3508 29.0633 10.4623 29.0104C9.21063 30.8252 7.97281 31.6666 7.5 31.6666ZM13.3334 16.7464C13.3334 15 13.8754 15 14.1667 15C14.7559 15 15.0001 15 15.0001 16.6666C15.0001 17.0182 14.7657 17.8971 14.3368 19.2692C13.6824 18.2617 13.3334 17.3983 13.3334 16.7464ZM13.9722 25.7031C14.0243 25.5583 14.0748 25.4118 14.1236 25.2637C14.4328 24.3359 14.7112 23.5026 14.9594 22.7523C15.3052 23.1331 15.678 23.523 16.0776 23.9225C16.2338 24.0787 16.6212 24.4303 17.1372 24.8705C16.11 25.0944 15.0171 25.3719 13.9722 25.7031ZM23.3334 26.1369C23.3334 26.5112 23.3334 26.6666 22.5602 26.6716C22.3332 26.6227 21.8083 26.3135 21.1605 25.8724C21.3956 25.8464 21.569 25.8334 21.6666 25.8334C22.898 25.8334 23.2471 25.9537 23.3334 26.1369Z" fill="white"/>
</svg>
