<svg width="40" height="40" viewBox="0 0 40 40" fill="none" xmlns="http://www.w3.org/2000/svg">
<path d="M29.1666 21.6667C23.1932 21.6667 18.3333 16.8067 18.3333 10.8333C18.3333 4.86 23.1932 0 29.1666 0C35.1399 0 39.9999 4.86 39.9999 10.8333C39.9999 16.8067 35.1399 21.6667 29.1666 21.6667ZM29.1666 1.66667C24.1116 1.66667 19.9999 5.77833 19.9999 10.8333C19.9999 15.8883 24.1116 20 29.1666 20C34.2216 20 38.3332 15.8883 38.3332 10.8333C38.3332 5.77833 34.2216 1.66667 29.1666 1.66667Z" fill="white"/>
<path d="M27.5001 15C27.2801 15 27.0668 14.9117 26.9101 14.7567L23.5768 11.4233C23.2518 11.0983 23.2518 10.57 23.5768 10.245C23.9018 9.91999 24.4301 9.91999 24.7551 10.245L27.4584 12.9483L32.7051 6.95166C33.0084 6.60332 33.5351 6.56832 33.8818 6.87332C34.2284 7.17666 34.2634 7.70332 33.9601 8.04999L28.1268 14.7167C27.9751 14.89 27.7568 14.9933 27.5268 15C27.5184 15 27.5084 15 27.5001 15Z" fill="white"/>
<path d="M5.83333 35C5.37333 35 5 34.6267 5 34.1667V25.8333C5 25.3733 5.37333 25 5.83333 25H8.33333C10.1717 25 11.6667 26.495 11.6667 28.3333C11.6667 30.1717 10.1717 31.6667 8.33333 31.6667H6.66667V34.1667C6.66667 34.6267 6.29333 35 5.83333 35ZM6.66667 30H8.33333C9.25166 30 10 29.2517 10 28.3333C10 27.415 9.25166 26.6667 8.33333 26.6667H6.66667V30Z" fill="white"/>
<path d="M14.1666 35C13.7066 35 13.3333 34.6267 13.3333 34.1667V25.8333C13.3333 25.3733 13.7066 25 14.1666 25H16.6666C18.5049 25 19.9999 26.495 19.9999 28.3333C19.9999 30.1717 18.5049 31.6667 16.6666 31.6667H14.9999V34.1667C14.9999 34.6267 14.6266 35 14.1666 35ZM14.9999 30H16.6666C17.5849 30 18.3332 29.2517 18.3332 28.3333C18.3332 27.415 17.5849 26.6667 16.6666 26.6667H14.9999V30Z" fill="white"/>
<path d="M25.0001 35C24.5401 35 24.1667 34.6267 24.1667 34.1667V25.8333C24.1667 25.3733 24.5401 25 25.0001 25C25.4601 25 25.8334 25.3733 25.8334 25.8333V34.1667C25.8334 34.6267 25.4601 35 25.0001 35Z" fill="white"/>
<path d="M27.5001 26.6667H22.5001C22.0401 26.6667 21.6667 26.2933 21.6667 25.8333C21.6667 25.3733 22.0401 25 22.5001 25H27.5001C27.9601 25 28.3334 25.3733 28.3334 25.8333C28.3334 26.2933 27.9601 26.6667 27.5001 26.6667Z" fill="white"/>
<path d="M29.1667 40H4.16667C1.87 40 0 38.13 0 35.8333V4.16667C0 1.87 1.87 0 4.16667 0H15.8333C16.2933 0 16.6667 0.373333 16.6667 0.833333C16.6667 1.29333 16.2933 1.66667 15.8333 1.66667H4.16667C2.78833 1.66667 1.66667 2.78833 1.66667 4.16667V35.8333C1.66667 37.2117 2.78833 38.3333 4.16667 38.3333H29.1667C30.545 38.3333 31.6667 37.2117 31.6667 35.8333V25.8333C31.6667 25.3733 32.04 25 32.5 25C32.96 25 33.3333 25.3733 33.3333 25.8333V35.8333C33.3333 38.13 31.4633 40 29.1667 40Z" fill="white"/>
</svg>
