<svg width="69" height="58" viewBox="0 0 69 58" fill="none" xmlns="http://www.w3.org/2000/svg">
<path d="M5.43619 45.5016V56.5243C5.43619 57.1948 5.98066 57.7537 6.66473 57.7537H15.1808C15.8509 57.7537 16.4093 57.2088 16.4093 56.5243V37.1333L10.2247 43.3222C8.91241 44.6215 7.23712 45.3759 5.43619 45.5016Z" fill="white"/>
<path d="M20.6534 36.9937V56.5243C20.6534 57.1949 21.1979 57.7537 21.8819 57.7537H30.398C31.0681 57.7537 31.6265 57.2089 31.6265 56.5243V45.0267C29.686 44.9847 27.8711 44.2164 26.5029 42.8473L20.6534 36.9937Z" fill="white"/>
<path d="M35.8706 43.8113V56.5244C35.8706 57.1949 36.4151 57.7538 37.0991 57.7538H45.6152C46.2853 57.7538 46.8437 57.2089 46.8437 56.5244V33.068L37.0852 42.8333C36.7083 43.2105 36.3034 43.5319 35.8706 43.8113Z" fill="white"/>
<path d="M61.2373 18.6505L51.0878 28.807V56.5244C51.0878 57.195 51.6323 57.7538 52.3163 57.7538H60.8324C61.5025 57.7538 62.0609 57.2089 62.0609 56.5244V19.4189C61.7817 19.1814 61.5723 18.9718 61.4187 18.8321L61.2373 18.6505Z" fill="white"/>
<path d="M68.2037 0.65661C67.7988 0.223527 67.1846 0 66.4028 0C66.3329 0 66.2492 0 66.1794 0C62.2145 0.181616 58.2636 0.377202 54.2988 0.558818C53.7683 0.586758 53.0423 0.614699 52.4699 1.18749C52.2884 1.3691 52.1488 1.57866 52.0372 1.83013C51.4508 3.10144 52.2745 3.92569 52.6654 4.31687L53.6566 5.32274C54.3407 6.02126 55.0387 6.71978 55.7367 7.40433L31.7801 31.3916L21.0164 20.6204C20.3742 19.9777 19.5086 19.6145 18.5872 19.6145C17.6658 19.6145 16.8142 19.9777 16.172 20.6204L1.83434 34.954C0.494105 36.2952 0.494105 38.4606 1.83434 39.8018L2.47653 40.4444C3.11872 41.0871 3.98429 41.4503 4.9057 41.4503C5.82711 41.4503 6.67871 41.0871 7.32091 40.4444L18.5872 29.1703L29.351 39.9415C29.9931 40.5841 30.8587 40.9474 31.7801 40.9474C32.7015 40.9474 33.5531 40.5841 34.2093 39.9415L61.2373 12.8947L64.2947 15.9403C64.6577 16.3035 65.1602 16.8064 65.9281 16.8064C66.2492 16.8064 66.5703 16.7226 66.9053 16.541C67.1287 16.4153 67.3242 16.2756 67.4917 16.1079C68.092 15.5072 68.2037 14.7388 68.2316 14.1381C68.3433 11.5675 68.4689 8.99696 68.5946 6.41243L68.7761 2.54262C68.818 1.73233 68.6365 1.10366 68.2037 0.65661Z" fill="white"/>
</svg>
