<svg width="58" height="58" viewBox="0 0 58 58" fill="none" xmlns="http://www.w3.org/2000/svg">
<path d="M33.6634 0C20.4764 0 9.7852 10.6986 9.7852 23.8948C9.7852 29.2577 11.573 34.1925 14.5546 38.1798L0.620117 52.124L6.49208 58L20.5989 43.8834C24.3551 46.3456 28.8379 47.7896 33.6634 47.7896C46.8504 47.7896 57.5417 37.091 57.5417 23.8948C57.5417 10.6986 46.8504 0 33.6634 0ZM33.6634 41.5562C23.9315 41.5562 16.0143 33.6335 16.0143 23.8948C16.0143 14.1561 23.9315 6.23343 33.6634 6.23343C43.3954 6.23343 51.3125 14.1561 51.3125 23.8948C51.3125 33.6335 43.3954 41.5562 33.6634 41.5562Z" fill="white"/>
<path d="M28.4727 19.7391H22.2436V34.2838H28.4727V19.7391Z" fill="white"/>
<path d="M36.7781 11.428H30.549V34.2839H36.7781V11.428Z" fill="white"/>
<path d="M45.0836 15.5835H38.8545V34.2838H45.0836V15.5835Z" fill="white"/>
</svg>
