<svg width="59" height="58" viewBox="0 0 59 58" fill="none" xmlns="http://www.w3.org/2000/svg">
<path d="M29.3965 8.35442C28.3967 8.35442 27.5853 7.54242 27.5853 6.54192V1.8125C27.5853 0.812 28.3967 0 29.3965 0C30.3963 0 31.2078 0.812 31.2078 1.8125V6.54192C31.2078 7.54242 30.3963 8.35442 29.3965 8.35442Z" fill="white"/>
<path d="M45.2654 14.9325C44.8017 14.9325 44.3381 14.7561 43.9855 14.4009C43.2779 13.6928 43.2779 12.5449 43.9855 11.8368L47.3278 8.49212C48.0354 7.78404 49.1825 7.78404 49.8901 8.49212C50.5977 9.20021 50.5977 10.3481 49.8901 11.0562L46.5478 14.4009C46.1928 14.7537 45.7291 14.9325 45.2654 14.9325Z" fill="white"/>
<path d="M56.5652 30.8125H51.839C50.8392 30.8125 50.0278 30.0005 50.0278 29C50.0278 27.9995 50.8392 27.1875 51.839 27.1875H56.5652C57.565 27.1875 58.3764 27.9995 58.3764 29C58.3764 30.0005 57.565 30.8125 56.5652 30.8125Z" fill="white"/>
<path d="M48.6078 50.037C48.1441 50.037 47.6804 49.8606 47.3278 49.5054L43.9855 46.1607C43.2779 45.4526 43.2779 44.3047 43.9855 43.5966C44.6931 42.8885 45.8402 42.8885 46.5478 43.5966L49.8901 46.9413C50.5977 47.6494 50.5977 48.7973 49.8901 49.5054C49.5351 49.8606 49.0714 50.037 48.6078 50.037Z" fill="white"/>
<path d="M10.1853 50.037C9.72161 50.037 9.25793 49.8606 8.90534 49.5054C8.19775 48.7973 8.19775 47.6494 8.90534 46.9413L12.2477 43.5966C12.9553 42.8885 14.1024 42.8885 14.81 43.5966C15.5176 44.3047 15.5176 45.4526 14.81 46.1607L11.4676 49.5054C11.1126 49.8606 10.649 50.037 10.1853 50.037Z" fill="white"/>
<path d="M6.954 30.8125H2.22787C1.22806 30.8125 0.416626 30.0005 0.416626 29C0.416626 27.9995 1.22806 27.1875 2.22787 27.1875H6.954C7.9538 27.1875 8.76524 27.9995 8.76524 29C8.76524 30.0005 7.9538 30.8125 6.954 30.8125Z" fill="white"/>
<path d="M13.5276 14.9325C13.064 14.9325 12.6003 14.7561 12.2477 14.4009L8.90534 11.0562C8.19775 10.3481 8.19775 9.20021 8.90534 8.49212C9.61293 7.78404 10.7601 7.78404 11.4676 8.49212L14.81 11.8368C15.5176 12.5449 15.5176 13.6928 14.81 14.4009C14.4526 14.7537 13.9913 14.9325 13.5276 14.9325Z" fill="white"/>
<path d="M36.6415 50.75V53.7708C36.6415 56.0908 34.7337 58 32.4153 58H26.3778C24.3492 58 22.1516 56.4533 22.1516 53.07V50.75H36.6415Z" fill="white"/>
<path d="M40.0466 15.8534C36.0861 12.6392 30.8697 11.3825 25.7741 12.47C19.3743 13.7992 14.1821 19.0192 12.8539 25.4234C11.5015 31.9967 13.9648 38.5217 19.2294 42.5092C20.6543 43.5725 21.6444 45.2159 21.9825 47.125V47.1492C22.0308 47.125 22.1033 47.125 22.1516 47.125H36.6415C36.6898 47.125 36.7139 47.125 36.7622 47.1492V47.125C37.1003 45.2884 38.1871 43.5967 39.8534 42.2917C43.9348 39.0534 46.3015 34.22 46.3015 29C46.3015 23.8767 44.0314 19.0917 40.0466 15.8534ZM28.4909 28.3959H30.3022C33.1325 28.3959 35.434 30.6989 35.434 33.5313C35.434 36.0519 33.6059 38.1447 31.2078 38.5749V41.6875C31.2078 42.688 30.3963 43.5 29.3965 43.5C28.3967 43.5 27.5853 42.688 27.5853 41.6875V38.6667H25.1703C24.1705 38.6667 23.3591 37.8547 23.3591 36.8542C23.3591 35.8537 24.1705 35.0417 25.1703 35.0417H30.3022C31.1353 35.0417 31.8115 34.365 31.8115 33.5313C31.8115 32.6975 31.1353 32.0209 30.3022 32.0209H28.4909C25.6605 32.0209 23.3591 29.7178 23.3591 26.8854C23.3591 24.3649 25.1872 22.272 27.5853 21.8419V18.7292C27.5853 17.7287 28.3967 16.9167 29.3965 16.9167C30.3963 16.9167 31.2078 17.7287 31.2078 18.7292V21.75H33.6228C34.6226 21.75 35.434 22.562 35.434 23.5625C35.434 24.563 34.6226 25.375 33.6228 25.375H28.4909C27.6577 25.375 26.9815 26.0517 26.9815 26.8854C26.9815 27.7192 27.6577 28.3959 28.4909 28.3959Z" fill="white"/>
<path d="M21.9825 47.125H22.1516C22.1033 47.125 22.0308 47.125 21.9825 47.1492V47.125Z" fill="white"/>
<path d="M36.7632 47.125V47.1492C36.7145 47.125 36.6902 47.125 36.6415 47.125H36.7632Z" fill="white"/>
</svg>
