<svg width="61" height="58" viewBox="0 0 61 58" fill="none" xmlns="http://www.w3.org/2000/svg">
<path d="M57.7319 7.56522C57.6431 7.31407 57.5413 7.06775 57.4267 6.82729L59.5148 4.7374L55.9512 1.17135L53.8628 3.26092C53.6225 3.14627 53.3764 3.04431 53.1254 2.95548V0H48.0854V2.95548C47.8344 3.04431 47.5883 3.14627 47.348 3.26092L45.2596 1.17135L41.696 4.7374L43.7841 6.82729C43.6695 7.06775 43.5676 7.31407 43.4789 7.56522H40.5255V12.6087H43.4789C43.5676 12.8598 43.6695 13.1062 43.7841 13.3466L41.696 15.4365L45.2596 19.0026L47.348 16.913C47.5883 17.0276 47.8344 17.1296 48.0854 17.2184V20.1739H53.1254V17.2184C53.3764 17.1296 53.6225 17.0276 53.8628 16.913L55.9512 19.0026L59.5148 15.4365L57.4267 13.3466C57.5413 13.1062 57.6431 12.8598 57.7319 12.6087H60.6853V7.56522H57.7319ZM53.1254 10.087C53.1254 10.5857 52.9776 11.0733 52.7007 11.488C52.4238 11.9027 52.0302 12.2259 51.5698 12.4167C51.1093 12.6076 50.6026 12.6575 50.1138 12.5602C49.6249 12.4629 49.1759 12.2228 48.8235 11.8701C48.4711 11.5174 48.2311 11.0681 48.1338 10.5789C48.0366 10.0898 48.0865 9.58272 48.2772 9.12193C48.468 8.66114 48.791 8.2673 49.2054 7.99021C49.6198 7.71312 50.107 7.56522 50.6054 7.56522C51.2735 7.56597 51.914 7.83189 52.3865 8.30465C52.8589 8.7774 53.1246 9.41838 53.1254 10.087Z" fill="white"/>
<path d="M59.8238 37.8907L56.195 36.6803L57.9058 33.257C58.0241 33.0203 58.065 32.7523 58.0227 32.4911C57.9803 32.2298 57.8569 31.9885 57.6699 31.8014L54.106 28.235C53.919 28.0478 53.6778 27.9243 53.4167 27.8819C53.1556 27.8396 52.8879 27.8805 52.6513 27.9989L49.2304 29.7108L48.0208 26.0795C47.9372 25.8285 47.7767 25.6101 47.5622 25.4554C47.3476 25.3006 47.0899 25.2174 46.8254 25.2174H41.7854C41.521 25.2174 41.2632 25.3006 41.0487 25.4554C40.8341 25.6101 40.6737 25.8285 40.59 26.0795L39.3804 29.7108L35.9595 27.9989C35.723 27.8805 35.4552 27.8396 35.1941 27.8819C34.933 27.9243 34.6919 28.0478 34.5049 28.235L30.941 31.8014C30.754 31.9885 30.6305 32.2298 30.5882 32.4911C30.5458 32.7523 30.5867 33.0203 30.7051 33.257L32.4158 36.6803L28.787 37.8907C28.5361 37.9744 28.3179 38.135 28.1633 38.3497C28.0087 38.5644 27.9255 38.8223 27.9255 39.087V44.1304C27.9255 44.3951 28.0087 44.653 28.1633 44.8677C28.3179 45.0824 28.5361 45.243 28.787 45.3267L32.4158 46.5371L30.7051 49.962C30.5867 50.1987 30.5458 50.4667 30.5882 50.7279C30.6305 50.9892 30.754 51.2305 30.941 51.4176L34.5049 54.984C34.6919 55.1712 34.933 55.2947 35.1941 55.3371C35.4552 55.3794 35.723 55.3385 35.9595 55.2201L39.3804 53.5082L40.59 57.1395C40.6739 57.3902 40.8345 57.6083 41.049 57.7627C41.2636 57.9171 41.5212 58.0001 41.7854 58H46.8254C47.0899 58 47.3476 57.9168 47.5622 57.762C47.7767 57.6073 47.9372 57.3889 48.0208 57.1379L49.2304 53.5066L52.6513 55.2185C52.8879 55.3369 53.1556 55.3779 53.4167 55.3355C53.6778 55.2931 53.919 55.1696 54.106 54.9824L57.6699 51.4161C57.8569 51.2289 57.9803 50.9876 58.0227 50.7263C58.065 50.4651 58.0241 50.1971 57.9058 49.9604L56.195 46.5371L59.8238 45.3267C60.0747 45.243 60.2929 45.0824 60.4475 44.8677C60.6022 44.653 60.6854 44.3951 60.6853 44.1304V39.087C60.6854 38.8223 60.6022 38.5644 60.4475 38.3497C60.2929 38.135 60.0747 37.9744 59.8238 37.8907ZM44.3054 47.9131C43.0594 47.9131 41.8414 47.5433 40.8054 46.8506C39.7693 46.1578 38.9618 45.1732 38.485 44.0213C38.0082 42.8693 37.8834 41.6017 38.1265 40.3788C38.3696 39.1559 38.9696 38.0325 39.8507 37.1509C40.7317 36.2692 41.8543 35.6688 43.0764 35.4255C44.2984 35.1822 45.5652 35.3071 46.7163 35.7842C47.8675 36.2614 48.8514 37.0695 49.5437 38.1062C50.2359 39.1429 50.6054 40.3618 50.6054 41.6087C50.6035 43.2801 49.9391 44.8826 48.7581 46.0644C47.577 47.2463 45.9757 47.9111 44.3054 47.9131Z" fill="white"/>
<path d="M20.3655 37.8273C16.76 37.8338 13.2388 36.7364 10.2745 34.6825C7.31013 32.6286 5.04455 29.7165 3.78179 26.337C2.51903 22.9575 2.31952 19.2723 3.21003 15.7761C4.10054 12.2798 6.03845 9.13979 8.76369 6.77745C11.4889 4.41511 14.8711 2.94348 18.4562 2.56009C22.0413 2.17669 25.6578 2.89987 28.8204 4.63256C31.9829 6.36526 34.5402 9.02455 36.1489 12.2535C37.7576 15.4825 38.3408 19.1267 37.8202 22.6969H40.3613C40.8973 18.4244 40.0524 14.0925 37.9505 10.3352C35.8486 6.5779 32.5999 3.59259 28.6801 1.81626C24.7603 0.03994 20.3753 -0.434101 16.1668 0.463533C11.9583 1.36117 8.14752 3.58334 5.29222 6.80474C2.43693 10.0261 0.68709 14.0776 0.298872 18.366C-0.0893447 22.6544 0.904445 26.9546 3.13476 30.637C5.36508 34.3195 8.7148 37.1908 12.6935 38.8306C16.6723 40.4704 21.0711 40.7927 25.2461 39.7502C25.0587 38.9372 24.7525 38.1246 24.583 37.3116C23.2033 37.654 21.7871 37.8271 20.3655 37.8273Z" fill="white"/>
<path d="M20.3655 5.04346C17.3751 5.04346 14.4518 5.93084 11.9654 7.59339C9.4789 9.25595 7.54094 11.619 6.39655 14.3837C5.25216 17.1484 4.95273 20.1907 5.53614 23.1257C6.11954 26.0607 7.55958 28.7567 9.67414 30.8727C11.7887 32.9887 14.4828 34.4298 17.4158 35.0136C20.3488 35.5974 23.3889 35.2978 26.1517 34.1526C28.9145 33.0074 31.2759 31.0681 32.9373 28.5799C34.5987 26.0917 35.4855 23.1664 35.4855 20.1739C35.4809 16.1625 33.8864 12.3166 31.0519 9.48013C28.2173 6.64361 24.3742 5.04805 20.3655 5.04346ZM27.9255 15.1304H17.8455V17.6521H22.8855C24.2217 17.6537 25.5027 18.1856 26.4476 19.1311C27.3924 20.0766 27.9239 21.3585 27.9255 22.6956V25.2174C27.9239 26.5545 27.3924 27.8364 26.4476 28.7819C25.5027 29.7274 24.2217 30.2593 22.8855 30.2608V32.7826H17.8455V30.2608H12.8056V25.2174H22.8855V22.6956H17.8455C16.5093 22.694 15.2283 22.1622 14.2835 21.2167C13.3387 20.2712 12.8072 18.9893 12.8056 17.6521V15.1304C12.8072 13.7933 13.3387 12.5114 14.2835 11.5659C15.2283 10.6204 16.5093 10.0885 17.8455 10.0869V7.5652H22.8855V10.0869H27.9255V15.1304Z" fill="white"/>
</svg>
